<svg width="36" height="36" viewBox="0 0 36 36" fill="none" xmlns="http://www.w3.org/2000/svg">
<path d="M35.9971 26.8644C35.9971 27.0615 35.9911 27.4889 35.9792 27.8191C35.9503 28.6271 35.8862 29.6697 35.7894 30.1447C35.6438 30.8585 35.424 31.5323 35.1375 32.0931C34.7985 32.7565 34.3661 33.3508 33.8523 33.8636C33.3396 34.3755 32.7459 34.8062 32.0835 35.1438C31.5197 35.4311 30.8418 35.651 30.1238 35.7959C29.6535 35.8909 28.6188 35.9537 27.816 35.9822C27.4855 35.9941 27.0579 36 26.8615 36L9.13559 35.9972C8.93848 35.9972 8.51107 35.9911 8.18086 35.9793C7.3729 35.9503 6.33035 35.8862 5.8553 35.7894C5.14145 35.6438 4.46764 35.4241 3.90685 35.1376C3.24341 34.7986 2.64919 34.3661 2.13632 33.8523C1.62447 33.3396 1.19375 32.746 0.856159 32.0836C0.568804 31.5198 0.348946 30.8418 0.204003 30.1239C0.109085 29.6536 0.0462636 28.6188 0.0176828 27.816C0.00594115 27.4855 0 27.058 0 26.8616L0.00281238 9.13563C0.00281238 8.93851 0.00882384 8.51107 0.020671 8.18086C0.0496737 7.3729 0.11369 6.33035 0.210542 5.85534C0.356118 5.14149 0.575835 4.46768 0.862381 3.90685C1.20138 3.24345 1.63382 2.64919 2.1476 2.13632C2.6603 1.6245 3.25399 1.19375 3.91641 0.856123C4.48019 0.568839 5.15822 0.348981 5.87612 0.204038C6.34638 0.109085 7.38116 0.0462636 8.18395 0.017718C8.51448 0.00594115 8.94207 0 9.13837 0L26.8643 0.00284754C27.0615 0.00284754 27.4889 0.008859 27.8191 0.0207061C28.6271 0.0497088 29.6696 0.113726 30.1447 0.210577C30.8585 0.356153 31.5323 0.57587 32.0931 0.862416C32.7565 1.20141 33.3507 1.63385 33.8636 2.14764C34.3754 2.66034 34.8062 3.25399 35.1438 3.91645C35.4311 4.48023 35.651 5.15822 35.7959 5.87612C35.8909 6.34642 35.9536 7.38116 35.9823 8.18399C35.994 8.51451 36 8.94207 36 9.13844L35.9971 26.8644Z" fill="url(#paint0_linear_144_60)"/>
<path d="M27.5381 8.51687C25.1009 6.07758 21.8596 4.73355 18.4062 4.73218C11.2908 4.73218 5.49976 10.521 5.49691 17.6365C5.496 19.911 6.09043 22.1312 7.22009 24.0882L5.38867 30.7756L12.2321 28.9811C14.1176 30.0091 16.2405 30.5509 18.4011 30.5519H18.4064C25.5211 30.5519 31.3127 24.7623 31.3156 17.6468C31.3169 14.1985 29.9754 10.9561 27.5381 8.51687ZM18.4064 28.3723H18.402C16.4767 28.3716 14.5883 27.8545 12.9409 26.8772L12.5491 26.6448L8.48813 27.7097L9.57209 23.7516L9.3169 23.3457C8.24285 21.638 7.67559 19.664 7.67644 17.6373C7.67876 11.7233 12.4921 6.91177 18.4106 6.91177C21.2764 6.91286 23.9704 8.03008 25.9962 10.0575C28.022 12.0849 29.137 14.7799 29.1359 17.646C29.1336 23.5605 24.3203 28.3723 18.4064 28.3723ZM24.2918 20.3389C23.9692 20.1775 22.3834 19.3974 22.0877 19.2898C21.7921 19.1821 21.5771 19.1284 21.362 19.4512C21.147 19.774 20.5288 20.5003 20.3406 20.7155C20.1525 20.9307 19.9643 20.9577 19.6418 20.7962C19.3192 20.6348 18.2799 20.2943 17.0478 19.1958C16.089 18.3409 15.4416 17.2848 15.2534 16.9619C15.0653 16.6391 15.2334 16.4647 15.3949 16.3039C15.54 16.1594 15.7175 15.9272 15.8787 15.739C16.04 15.5507 16.0938 15.4161 16.2013 15.2009C16.3088 14.9857 16.255 14.7974 16.1744 14.636C16.0938 14.4746 15.4487 12.8874 15.1799 12.2418C14.9181 11.613 14.6521 11.6981 14.4541 11.6882C14.2662 11.6789 14.0509 11.6769 13.8359 11.6769C13.6209 11.6769 13.2714 11.7576 12.9758 12.0804C12.6801 12.4033 11.8468 13.1834 11.8468 14.7705C11.8468 16.3576 13.0026 17.891 13.1639 18.1062C13.3252 18.3214 15.4384 21.5784 18.6741 22.9752C19.4437 23.3074 20.0445 23.5058 20.513 23.6544C21.2857 23.8998 21.9888 23.8652 22.5447 23.7822C23.1644 23.6896 24.453 23.0021 24.7219 22.2489C24.9907 21.4956 24.9907 20.8501 24.91 20.7156C24.8294 20.5811 24.6144 20.5003 24.2918 20.3389Z" fill="#1E1E1E"/>
<defs>
<linearGradient id="paint0_linear_144_60" x1="18" y1="0" x2="18" y2="36" gradientUnits="userSpaceOnUse">
<stop stop-color="#61FD7D"/>
<stop offset="1" stop-color="#2BB826"/>
</linearGradient>
</defs>
</svg>
