<svg width="432" height="86" viewBox="0 0 432 86" fill="none" xmlns="http://www.w3.org/2000/svg">
<path fill-rule="evenodd" clip-rule="evenodd" d="M426.526 28.1676C426.219 30.2836 425.861 31.5464 425.452 31.956C422.109 35.3689 418.221 38.2358 413.787 40.5566C413.446 41.2392 413.276 41.6828 413.276 41.8876C413.276 42.0924 413.344 42.1948 413.48 42.1948C415.799 42.1948 418.375 43.1333 421.205 45.0105C424.036 46.8875 425.452 48.4064 425.452 49.5667C425.315 50.5224 425.247 51.7852 425.247 53.3551C425.247 62.6383 427.498 69.5324 432 74.0375V74.1399C432 74.7543 430.704 76.2048 428.112 78.4914C425.52 80.7781 423.849 81.9214 423.098 81.9214C420.302 81.9214 417.471 81.6826 414.606 81.2047C411.741 80.7269 409.899 80.0785 409.08 79.2593C409.012 79.1911 408.944 78.645 408.876 77.6211C408.671 74.4812 408.466 72.57 408.262 71.8874C408.262 68.6506 406.874 60.4089 406.318 56.3243L406.011 54.0718C405.806 53.2527 405.363 52.3995 404.681 51.5121C403.998 50.6247 403.351 49.9763 402.737 49.5667L401.816 48.85C400.724 48.85 399.155 49.635 397.109 51.205L396.086 51.9217C396.086 52.3995 396.904 53.7305 398.541 55.9148C397.655 60.4199 397.211 64.2083 397.211 67.2799V68.4062C397.484 68.4062 397.825 68.628 398.235 69.0717C398.644 69.5154 398.848 69.8396 398.848 70.0444L399.565 78.7474C399.565 79.2935 399.496 79.5665 399.36 79.5665C397.996 79.5665 396.035 80.3174 393.477 81.8191C390.919 83.3207 388.957 84.0716 387.593 84.0716C387.525 84.0716 387.15 84.0033 386.468 83.8668C384.08 83.389 382.443 83.1501 381.556 83.1501C380.056 83.1501 378.18 82.0579 375.929 79.8737L374.803 78.8498C375.758 76.9385 376.338 73.4232 376.543 68.3038C376.769 62.6351 376.812 54.5932 377.719 49.4644C378.299 46.1879 378.589 44.3791 378.589 44.0377C378.589 43.6965 378.435 43.3552 378.128 43.0139C377.821 42.6726 377.634 41.1709 377.566 38.5088C377.498 29.4304 377.088 23.6284 376.338 21.1028C376.338 20.9663 376.645 20.7103 377.259 20.3349C377.873 19.9595 378.18 19.6011 378.18 19.2598C378.18 17.0072 377.157 14.0039 375.11 10.2496C374.496 9.08923 374.189 8.47491 374.189 8.4066C374.189 7.99705 375.093 7.22915 376.901 6.10291C378.708 4.97661 380.994 3.91862 383.756 2.92886C386.519 1.9391 388.923 1.44418 390.97 1.44418C391.515 1.44418 392.095 2.34866 392.709 4.15753C393.323 5.96638 393.63 7.34864 393.63 8.30423C393.903 8.5773 394.176 8.71379 394.449 8.71379C394.721 8.71379 394.926 8.64552 395.063 8.50903C398.882 4.82305 400.997 2.91177 401.406 2.77525C404.749 2.43397 408.279 2.26332 411.997 2.26332C415.714 2.26332 417.929 2.73033 418.801 3.49199C427.564 11.1449 428.02 17.8714 426.526 28.1676V28.1676ZM378.553 21.8484C378.909 23.5921 379.06 25.5479 379.177 27.2096C379.44 30.9476 379.511 34.7297 379.54 38.4763C379.558 39.2247 379.589 41.1279 379.799 41.9362C380.271 42.5416 380.563 43.2519 380.563 44.0377C380.563 44.6179 380.413 45.3863 380.321 45.9628C380.115 47.2464 379.89 48.5283 379.663 49.8084C379.096 53.0134 378.938 56.495 378.806 59.7477C378.689 62.6255 378.63 65.5051 378.515 68.3826C378.402 71.204 378.152 75.3129 377.147 78.3138L377.281 78.4348L377.303 78.457C378.161 79.2894 380.258 81.1761 381.556 81.1761C383.188 81.1761 385.254 81.6107 386.855 81.9312C387.128 81.9858 387.42 82.0513 387.699 82.0951C389.074 82.0312 391.367 80.7684 392.477 80.1167C393.892 79.2861 395.73 78.3061 397.51 77.85L396.909 70.5493C396.866 70.4991 396.821 70.4505 396.784 70.4101C396.775 70.4008 396.766 70.3907 396.756 70.3802H395.237V67.2799C395.237 63.6868 395.765 59.9525 396.437 56.4015C395.474 55.1121 394.112 53.1768 394.112 51.9217V50.8942L395.942 49.6124C397.513 48.4099 399.771 46.876 401.816 46.876H402.493L403.897 47.9685C404.802 48.5877 405.582 49.4454 406.246 50.3091C406.998 51.2875 407.625 52.3887 407.926 53.5932L407.952 53.6982L408.274 56.0579C408.602 58.4637 408.984 60.8646 409.329 63.2687C409.557 64.8626 409.776 66.4602 409.956 68.0604C410.087 69.2238 410.216 70.4446 410.234 71.6224C410.388 72.2624 410.464 72.9944 410.531 73.6229C410.669 74.9077 410.761 76.2028 410.846 77.4921C410.859 77.6889 410.869 77.9215 410.888 78.1498C411.933 78.7077 414.122 79.1228 414.93 79.2576C417.579 79.6993 420.258 79.9383 422.944 79.9471C423.853 79.5976 426.138 77.6006 426.806 77.0111C427.329 76.5494 428.78 75.2704 429.597 74.3502C424.648 68.6331 423.273 60.7417 423.273 53.3551C423.273 52.1109 423.303 50.8164 423.459 49.5747C423.112 48.7328 420.763 47.0855 420.114 46.6557C418.22 45.3995 415.81 44.1688 413.48 44.1688C412.198 44.1688 411.302 43.1361 411.302 41.8876C411.302 41.146 411.694 40.3286 412.021 39.6742L412.306 39.1035L412.872 38.8076C416.973 36.6611 420.705 33.9548 423.958 30.6596C424.244 30.0887 424.489 28.4622 424.572 27.8842C426.025 17.8692 425.501 11.9638 417.505 4.98076C416.706 4.33417 412.982 4.23737 411.997 4.23737C408.684 4.23737 405.367 4.37377 402.069 4.69311C401.562 5.07528 400.949 5.67235 400.537 6.04845C399.151 7.31452 397.793 8.61797 396.442 9.92145C395.904 10.4499 395.194 10.6878 394.449 10.6878C393.587 10.6878 392.833 10.2989 392.234 9.69965L391.656 9.12154V8.30423C391.656 7.2763 391.168 5.7577 390.84 4.79195C390.742 4.5049 390.518 3.86748 390.3 3.43759C388.321 3.54972 386.248 4.13297 384.422 4.78724C382.215 5.57804 379.939 6.53565 377.945 7.77836C377.637 7.96978 377.014 8.35613 376.522 8.71811C376.634 8.92358 376.746 9.12434 376.846 9.3099C378.388 12.1579 380.154 15.9593 380.154 19.2598C380.154 20.4036 379.438 21.2442 378.553 21.8484V21.8484ZM395.183 36.5378C395.268 35.9661 395.237 35.0924 395.237 34.5157C395.237 32.3978 394.907 30.0068 394.639 27.9055L394.355 25.6816H395.983C396.069 25.5981 396.153 25.5124 396.224 25.4412C396.291 25.3739 396.371 25.2955 396.45 25.214C396.394 24.0538 396.18 22.8993 395.871 21.7823C395.666 21.0386 395.281 19.6675 394.852 19.0233L394.521 18.5262V17.8264C394.521 16.0688 396.729 14.7087 398.031 13.8656C399.465 12.9372 401.392 11.8592 403.146 11.8592H403.897L405.379 13.1774C406.541 14.2115 407.261 16.0729 407.734 17.5205C408.469 19.7703 408.701 22.2271 408.701 24.584C408.701 25.6434 407.89 26.7204 407.269 27.5277C407.13 27.7088 406.868 28.0507 406.713 28.3217C406.826 28.6331 407.036 29.0375 407.15 29.2559C407.603 30.13 408.087 31.2119 408.087 32.2119C408.087 33.2223 407.416 34.0366 406.752 34.7236C405.982 35.519 405.099 36.262 404.244 36.9634C402.978 38.0021 400.615 39.9709 398.9 39.9709C397.528 39.9709 396.404 39.2524 395.567 38.2057L394.957 37.4425L395.183 36.5378ZM398.9 37.9969C399.548 37.9969 400.912 37.1436 402.992 35.4371C405.073 33.7307 406.113 32.6556 406.113 32.2119C406.113 31.7682 405.874 31.0856 405.397 30.1641C404.919 29.2426 404.681 28.5942 404.681 28.2187C404.681 27.8434 405.022 27.212 405.704 26.3246C406.386 25.4372 406.727 24.857 406.727 24.584C406.727 22.0584 406.437 19.9083 405.857 18.1335C405.278 16.3588 404.681 15.1984 404.067 14.6523L403.146 13.8332C402.191 13.8332 400.844 14.3963 399.104 15.5226C397.365 16.6489 396.495 17.4168 396.495 17.8264V17.9288C396.904 18.5431 397.331 19.6523 397.774 21.2564C398.217 22.8604 398.439 24.3792 398.439 25.8126C398.439 25.9492 398.166 26.2905 397.621 26.8365C397.075 27.3826 396.734 27.6557 396.597 27.6557C397.007 30.8638 397.211 33.1505 397.211 34.5157C397.211 35.8808 397.177 36.6999 397.109 36.973C397.655 37.6555 398.251 37.9969 398.9 37.9969V37.9969Z" fill="#E95A0E"/>
<path fill-rule="evenodd" clip-rule="evenodd" d="M367.799 73.2324C368.006 74.5892 368.835 76.3869 370.285 78.6256L370.906 79.6432C370.906 80.7965 368.956 82.0345 365.055 83.3573C361.154 84.6802 358.255 85.3416 356.356 85.3416C354.458 85.3416 352.594 84.9855 350.764 84.2732C348.935 83.5609 347.45 82.7977 346.311 81.9836C345.172 81.1696 344.603 80.5929 344.603 80.2538C344.603 80.1859 344.672 79.8128 344.81 79.1344C345.155 77.4385 345.328 75.6068 345.328 73.6395L343.049 59.6987C343.049 59.4273 343.671 59.1899 344.913 58.9864C346.156 58.7828 346.777 58.3419 346.777 57.6635C346.777 56.7816 346.26 56.0354 345.224 55.4248C344.188 54.8143 342.929 54.509 341.444 54.509C339.96 54.509 338.2 54.8821 336.163 55.6283C334.126 56.3746 332.953 57.0699 332.642 57.7144C332.331 58.3588 331.831 61.3776 331.14 66.7708C330.45 72.164 330.105 76.1834 330.105 78.8291C330.105 79.3718 328.275 80.1181 324.616 81.0678C320.957 82.0176 317.92 82.4924 315.503 82.4924C314.261 82.4924 312.224 81.6105 309.394 79.8467L308.048 79.0326C307.84 78.8292 307.737 78.5239 307.737 78.1169V77.9133C308.772 76.6244 310.015 73.8769 311.465 69.6709C317.076 54.5088 318.457 50.0017 321.251 34.4627C322.873 25.4401 323.684 20.1488 323.684 18.5885L322.338 12.6865C322.338 12.076 324.979 10.3631 330.26 7.54773C335.542 4.73246 338.666 3.22305 339.632 3.0195C340.599 2.81598 342.359 2.71423 344.913 2.71423C347.468 2.71423 349.849 2.95167 352.059 3.42655C356.753 4.4441 359.101 5.42779 359.101 6.3775C359.101 6.44535 358.928 7.32724 358.583 9.02322C357.478 14.3146 356.926 18.5206 356.926 21.6412C356.926 21.9804 357.271 22.2348 357.961 22.4044C358.652 22.574 358.997 22.6927 358.997 22.7605C358.997 24.9314 359.67 31.4948 361.016 42.4507C362.308 52.9592 364.467 63.2044 367.799 73.2324ZM365.877 73.708C362.536 63.6167 360.353 53.2369 359.057 42.6915C358.518 38.3043 357.989 33.9098 357.538 29.5126C357.396 28.1316 357.262 26.7481 357.155 25.3639C357.125 24.9795 357.096 24.59 357.072 24.1998C355.916 23.8082 354.952 22.9929 354.952 21.6412C354.952 17.4033 355.791 12.7626 356.65 8.62217C356.764 8.07407 356.895 7.49579 357.005 6.92648C355.73 6.27711 352.551 5.55263 351.642 5.35602C349.436 4.87915 347.168 4.68826 344.913 4.68826C343.874 4.68826 342.829 4.70132 341.791 4.76128C341.227 4.7939 340.593 4.83446 340.04 4.95084C339.357 5.10433 338.03 5.78808 337.385 6.09984C335.298 7.10998 333.235 8.19885 331.189 9.28974C329.458 10.2122 327.712 11.1604 326.042 12.1899C325.695 12.4043 324.987 12.8334 324.483 13.2122L325.658 18.3662V18.5885C325.658 19.2767 325.574 20.007 325.493 20.6904C325.361 21.8045 325.197 22.9175 325.027 24.0264C324.475 27.6285 323.839 31.2254 323.194 34.812C322.128 40.7384 321.006 46.672 319.389 52.4766C317.705 58.5207 315.5 64.4541 313.324 70.3353C312.577 72.5014 311.447 75.7185 310.093 77.9626L310.427 78.1644L310.438 78.1713C311.425 78.7864 314.316 80.5184 315.503 80.5184C318.317 80.5184 321.408 79.8612 324.12 79.1571C324.869 78.9628 327.046 78.402 328.141 77.9192C328.174 76.4992 328.276 75.0708 328.397 73.6614C328.602 71.2766 328.879 68.8942 329.182 66.5201C329.455 64.3928 329.735 62.2548 330.086 60.1389C330.238 59.221 330.463 57.6895 330.864 56.8572C331.629 55.2687 333.925 54.3459 335.484 53.7748C337.359 53.0875 339.434 52.5349 341.444 52.5349C343.12 52.5349 344.771 52.8662 346.227 53.7243C347.692 54.5883 348.751 55.9043 348.751 57.6635C348.751 59.6872 347.021 60.6368 345.251 60.9314L347.302 73.4792V73.6394C347.302 75.6128 347.138 77.5929 346.744 79.5281C346.726 79.6152 346.708 79.7043 346.689 79.7943C346.949 80.0144 347.274 80.2453 347.459 80.3776C348.661 81.2367 350.108 81.8994 351.48 82.4337C353.047 83.0434 354.676 83.3676 356.356 83.3676C358.727 83.3676 362.19 82.2445 364.421 81.4879C365.143 81.2429 367.545 80.3747 368.595 79.6483C367.491 77.939 366.239 75.7444 365.877 73.708V73.708ZM335.264 31.2611L334.862 26.7145V26.6274C334.862 25.9359 335.019 25.2646 335.36 24.6605C336.47 22.6964 338.927 22.3129 340.978 22.3129C341.345 22.3129 341.706 22.3855 342.042 22.5321C343.581 23.2035 343.884 24.9305 343.884 26.4238V26.8309C343.884 29.3174 343.955 31.8362 344.21 34.3106C344.378 35.9363 344.632 37.6904 345.135 39.2497L345.177 39.3791L345.334 39.6881V40.1611C345.334 40.5268 345.26 40.8867 345.11 41.2205C344.476 42.6306 342.937 42.9493 341.548 42.9493C340.514 42.9493 339.504 43.1522 338.532 43.497C337.485 43.8684 336.193 44.2721 335.076 44.2721C334.881 44.2721 334.686 44.2467 334.498 44.1962C332.773 43.7343 332.584 41.8385 332.584 40.3647C332.584 38.4077 333.339 36.2115 334.08 34.4208C334.39 33.6695 334.698 32.9112 334.973 32.1461C335.062 31.8988 335.199 31.5421 335.264 31.2611V31.2611ZM343.36 40.1611C343.291 40.0255 343.257 39.9237 343.257 39.8559C342.359 37.0745 341.91 32.7328 341.91 26.8309V26.4238C341.91 24.9992 341.6 24.2869 340.978 24.2869C338.217 24.2869 336.836 25.067 336.836 26.6274L337.25 31.3082C337.25 31.7152 336.801 33.0042 335.904 35.175C335.006 37.3458 334.558 39.0758 334.558 40.3647C334.558 41.6536 334.73 42.2981 335.076 42.2981C335.697 42.2981 336.629 42.0776 337.872 41.6367C339.114 41.1957 340.34 40.9752 341.548 40.9752C342.756 40.9752 343.36 40.7038 343.36 40.1611V40.1611Z" fill="#E95A0E"/>
<path fill-rule="evenodd" clip-rule="evenodd" d="M295.958 79.1716C294.729 80.0335 292.765 81.0505 290.067 82.2227C287.369 83.3948 285.355 83.9809 284.023 83.9809C282.691 83.9809 280.522 83.4465 277.517 82.3778C274.512 81.3091 272.907 80.7747 272.702 80.7747C272.497 80.7747 271.814 81.4125 270.653 82.6881C269.492 83.9636 268.57 84.6014 267.887 84.6014C265.564 84.6014 262.61 83.4982 259.025 81.2918C255.439 79.0855 253.646 77.5685 253.646 76.7411C253.646 76.6032 253.885 75.9827 254.363 74.8795C255.729 71.7078 256.412 67.4329 256.412 62.0548C256.076 54.4207 256.617 48.846 256.617 41.6802L256.31 28.5452V27.0973C256.31 26.6836 256.054 26.063 255.541 25.2356C255.029 24.4082 254.773 23.736 254.773 23.2189C254.773 22.7017 255.217 21.8571 256.105 20.6849C256.993 19.5128 257.437 18.5475 257.437 17.7891C257.437 17.0306 256.634 15.3068 255.029 12.6178C253.424 9.92876 252.621 8.54979 252.621 8.48081C252.621 7.58446 253.987 6.32612 256.719 4.70584C259.452 3.0855 261.535 2.27532 262.969 2.27532C265.974 0.758424 268.262 0 269.833 0C270.448 0 271.421 1.17212 272.753 3.51646C274.085 5.86073 274.853 7.03285 275.058 7.03285C275.263 7.03285 276.219 6.51574 277.927 5.48149C282.913 2.44768 286.584 0.930811 288.94 0.930811C291.297 0.930811 294.182 1.98229 297.597 4.08526C299.425 5.21077 304.052 15.2185 304.052 15.4103C304.052 21.9605 302.481 26.8215 299.339 29.9931C298.588 30.7516 297.444 31.648 295.907 32.6822C294.37 33.7165 293.175 34.6645 292.321 35.5264C291.467 36.3883 291.041 37.3708 291.041 38.474C291.314 39.5082 291.655 40.0254 292.065 40.0254C292.202 40.0254 293.004 39.6289 294.473 38.836C295.941 38.0431 297.222 37.6466 298.315 37.6466C298.724 37.6466 299.629 38.4567 301.03 40.0771C302.43 41.6974 303.83 44.0244 305.23 47.0582C306.63 50.092 307.33 52.6776 307.33 54.8151C307.33 56.9525 307.091 59.1589 306.613 61.4343C305.197 68.1726 301.704 75.1434 295.958 79.1716V79.1716ZM258.284 28.5221L258.591 41.6571V41.6802C258.591 48.4683 258.085 55.1652 258.384 61.968L258.386 62.0114V62.0548C258.386 66.5023 257.955 71.5364 256.176 75.6614C256.059 75.9329 255.91 76.2544 255.782 76.5687C256.711 77.5201 259.298 79.1421 260.059 79.6106C262.114 80.8748 265.261 82.5727 267.766 82.6261C268.175 82.4364 268.932 81.6464 269.193 81.3592C270.03 80.4401 271.35 78.8007 272.702 78.8007C273.27 78.8007 274.138 79.1211 274.683 79.3025C275.853 79.692 277.017 80.1048 278.178 80.5179C279.685 81.0538 282.416 82.0068 284.023 82.0068C285.488 82.0068 287.954 80.9887 289.281 80.4121C291.07 79.6348 293.225 78.6773 294.825 77.5552C300.152 73.8208 303.372 67.2576 304.681 61.0284C305.111 58.9857 305.356 56.9037 305.356 54.8151C305.356 52.5304 304.382 49.9313 303.438 47.8855C302.421 45.6814 301.131 43.2138 299.536 41.3678C299.204 40.9841 298.434 40.0826 297.911 39.6485C297.056 39.7609 296.115 40.1927 295.411 40.573C294.624 40.9975 292.961 41.9994 292.065 41.9994C290.325 41.9994 289.516 40.4332 289.132 38.9782L289.067 38.7303V38.474C289.067 36.7939 289.741 35.3259 290.919 34.1371C292.068 32.977 293.453 31.9546 294.805 31.0445C295.854 30.3386 297.045 29.5043 297.937 28.6039C301.202 25.3078 302.035 20.2458 302.076 15.7721C301.201 13.6797 297.682 6.7132 296.528 5.74494C294.44 4.46241 291.448 2.90484 288.94 2.90484C286.195 2.90484 281.234 5.7818 278.952 7.16841C278.063 7.70904 276.111 9.00689 275.058 9.00689C273.882 9.00689 273.244 8.10112 272.677 7.23601C272.096 6.34964 271.56 5.41296 271.037 4.49157C270.754 3.99445 269.939 2.58829 269.395 1.99921C267.681 2.18418 265.23 3.34505 263.859 4.0376L263.439 4.24935H262.969C261.514 4.24935 258.941 5.68315 257.726 6.40373C257.191 6.72133 255.57 7.72323 254.844 8.43436C254.923 8.56659 255.001 8.69711 255.075 8.82381C255.62 9.7542 256.172 10.6805 256.724 11.6061C257.594 13.063 259.411 16.0641 259.411 17.7891C259.411 19.2826 258.553 20.7221 257.678 21.8769C257.46 22.1648 256.931 22.879 256.766 23.2882C256.842 23.5616 257.104 24.0099 257.22 24.1965C257.744 25.0439 258.284 26.0777 258.284 27.0973V28.5221ZM274.29 26.6378L273.801 18.1561V17.6989L273.839 17.509C274.072 16.3316 275.211 15.4046 276.121 14.7156C277.24 13.8684 278.545 13.2294 279.976 13.2294C281.857 13.2294 283.268 14.7135 284.262 16.1471C285.191 17.4878 286.048 19.1169 286.048 20.7883V21.1058L285.425 22.9931L285.412 23.0272C285.257 23.4447 284.921 24.3749 284.921 24.8219C284.921 25.0338 284.97 25.2164 285.075 25.4008C285.439 26.0438 285.741 26.7601 285.741 27.511C285.741 29.6919 284.16 31.2141 282.389 32.2249C281.933 32.4846 281.225 32.8609 280.727 33.2069C279.949 34.5857 277.836 35.2581 276.489 35.6969L276.191 35.7939H275.878C274.574 35.7939 273.754 34.8024 273.205 33.7499C272.804 32.9804 272.47 32.1135 272.47 31.2343V30.8236L274.29 26.6378ZM274.109 57.4344V56.6414L273.801 52.1942V52.126C273.801 50.8674 274.944 49.2522 275.644 48.2526C276.565 46.9382 277.906 45.2911 279.669 45.2911C280.952 45.2911 282.333 46.0126 283.406 46.6626C284.828 47.5239 286.15 48.7882 286.15 50.5747V50.8017L285.424 53.9162C285.727 54.3823 286.25 54.9953 286.512 55.3088C287.449 56.4328 288.609 57.992 288.609 59.5209C288.609 60.8472 287.846 62.6389 287.312 63.8395C286.687 65.2451 285.851 66.893 284.759 67.9948L284.706 68.0487L284.648 68.0983C283.694 68.924 282.135 69.3953 280.93 69.7063C279.888 69.9755 278.491 70.3378 277.415 70.3378C275.747 70.3378 274.879 68.8587 274.381 67.4863C273.894 66.1442 273.699 64.7196 273.699 63.2959V63.2262L274.109 57.4344ZM276.288 26.9938L274.444 31.2343C274.444 31.648 274.614 32.1823 274.956 32.8373C275.297 33.4924 275.605 33.8199 275.878 33.8199C277.995 33.1304 279.054 32.5443 279.054 32.0617C279.054 31.9238 279.839 31.4066 281.41 30.5103C282.981 29.614 283.767 28.6142 283.767 27.511C283.767 27.2352 283.63 26.8559 283.357 26.3733C283.084 25.8907 282.947 25.3735 282.947 24.8219C282.947 24.2703 283.152 23.4429 283.562 22.3397L284.074 20.7883C284.074 19.8231 283.596 18.6509 282.64 17.2719C281.683 15.8929 280.796 15.2034 279.976 15.2034C279.156 15.2034 278.268 15.5654 277.312 16.2894C276.356 17.0133 275.844 17.5477 275.775 17.8925V18.0993L276.288 26.9938ZM276.083 57.5041L275.673 63.2959C275.673 64.606 275.861 65.7781 276.236 66.8124C276.612 67.8466 277.005 68.3637 277.415 68.3637C277.961 68.3637 278.968 68.1741 280.437 67.7949C281.905 67.4157 282.879 67.0192 283.357 66.6055C284.04 65.916 284.757 64.7266 285.508 63.0373C286.26 61.3481 286.635 60.176 286.635 59.5209C286.635 58.8659 286.089 57.8834 284.996 56.5733C283.903 55.2633 283.357 54.4359 283.357 54.0911L284.176 50.5747C284.176 49.8162 283.579 49.075 282.383 48.3511C281.188 47.6271 280.283 47.2651 279.669 47.2651C279.054 47.2651 278.251 47.9718 277.261 49.3853C276.271 50.7988 275.775 51.7124 275.775 52.126L276.083 56.5733V57.5041Z" fill="#E95A0E"/>
<path fill-rule="evenodd" clip-rule="evenodd" d="M165.508 68.4277L165.821 70.3744C165.821 71.3306 165.248 73.0894 164.101 75.6507C162.954 78.2121 162.276 79.6294 162.067 79.9026C161.302 80.5856 159.53 80.9271 156.749 80.9271C153.409 80.9271 150.249 80.8179 147.27 80.5995C138.123 79.9288 131.008 82.0209 123.693 81.5418C120.218 81.5418 118.48 81.132 118.48 80.3124V80.1075C118.827 78.9463 119.001 77.1021 119.001 74.575L118.48 65.9689V65.8664C118.48 60.2192 119.21 54.785 119.21 49.5763L118.271 33.1837C118.271 27.4822 116.244 27.2541 118.219 22.5286C119.018 20.6161 119.418 19.4208 119.418 18.9427L117.645 9.92676C117.645 9.38035 119.14 8.03134 122.129 5.87985C125.119 3.72835 127.604 2.65256 129.585 2.65256C131.566 2.65256 134.104 2.89161 137.197 3.36973C140.291 3.84786 141.838 4.32598 141.838 4.80406C141.838 5.62371 141.577 7.79229 141.056 11.3099C139.887 19.1964 139.606 31.7695 139.648 39.792C139.674 44.9078 138.513 45.8396 138.5 49.4339C138.708 51.5513 139.856 56.5261 139.856 57.7214C139.856 59.9041 136.874 67.7827 139.752 66.7373C140.924 66.3116 141.952 65.2517 143.089 65.2517C145.453 65.7298 147.677 65.9689 149.763 65.9689C151.848 65.9689 153.204 65.6615 153.829 65.0468C156.193 62.7245 158.07 59.9924 159.46 56.8505C159.808 56.0309 160.086 55.6211 160.294 55.6211C162.241 55.6211 164.031 56.4407 165.665 58.0799C167.298 59.7192 168.115 61.0852 168.115 62.1781C167.698 64.2954 167.159 65.7469 166.499 66.5323C165.839 67.3178 165.508 67.9496 165.508 68.4277V68.4277ZM166.128 62.0469C165.982 61.2895 164.703 59.9113 164.267 59.4734C163.398 58.6018 162.409 57.9327 161.247 57.692C159.795 60.9857 157.78 63.9327 155.213 66.4549C153.874 67.7705 151.538 67.9429 149.763 67.9429C147.496 67.9429 145.229 67.681 143.006 67.2477C142.694 67.3534 142.011 67.7907 141.81 67.9099C141.365 68.1735 140.914 68.4155 140.426 68.5927C139.549 68.9113 138.608 68.9009 137.812 68.3671C135.764 66.9939 136.669 63.4704 137.114 61.4871C137.293 60.6873 137.488 59.8902 137.659 59.0887C137.741 58.7078 137.882 58.1074 137.882 57.7216C137.88 57.3076 137.75 56.6772 137.679 56.2632C137.526 55.3754 137.354 54.4899 137.187 53.6045C136.942 52.3067 136.664 50.9396 136.535 49.6274L136.525 49.5272V49.4265C136.53 48.1289 136.684 46.9581 136.955 45.694C137.13 44.8767 137.322 44.0739 137.448 43.2461C137.622 42.1045 137.679 40.9562 137.673 39.8023C137.649 35.0597 137.727 30.3038 137.919 25.5651C138.114 20.7552 138.397 15.783 139.102 11.0205C139.31 9.61997 139.513 8.21536 139.682 6.80965C139.717 6.51503 139.759 6.19451 139.794 5.87204C138.86 5.62012 137.461 5.40805 136.895 5.32061C134.52 4.95344 131.992 4.62659 129.585 4.62659C127.547 4.62659 124.868 6.34076 123.282 7.48203C122.598 7.97436 120.569 9.42129 119.729 10.2916L121.392 18.7505V18.9427C121.392 20.1251 120.497 22.1967 120.04 23.2899C119.578 24.3959 119.21 25.4737 119.371 26.6824C119.475 27.4627 119.704 28.2674 119.856 29.0452C120.122 30.4045 120.242 31.7419 120.245 33.1261L121.183 49.5198V49.5763C121.183 55.0117 120.453 60.4225 120.453 65.8664V65.9091L120.975 74.5152V74.575C120.975 76.0546 120.939 77.8289 120.664 79.4037C121.651 79.5504 123.147 79.5678 123.693 79.5678H123.758L123.822 79.5721C124.473 79.6147 125.126 79.6357 125.778 79.6393C129.086 79.6575 132.413 79.2397 135.704 78.9272C139.633 78.5539 143.467 78.3414 147.414 78.6308C150.519 78.8584 153.636 78.9531 156.749 78.9531C157.436 78.9531 159.772 78.896 160.596 78.5183C160.75 78.2284 160.898 77.8949 161.027 77.6239C161.463 76.7036 161.882 75.7735 162.299 74.8439C162.683 73.9851 163.756 71.5512 163.841 70.4986L163.534 68.5854V68.4278C163.534 67.2308 164.245 66.1456 164.988 65.262C165.53 64.6165 165.93 62.9956 166.127 62.047L166.128 62.0469Z" fill="#E95A0E"/>
<path fill-rule="evenodd" clip-rule="evenodd" d="M220.787 68.4277L221.1 70.3744C221.1 71.3306 220.527 73.0894 219.38 75.6507C218.233 78.2121 217.555 79.6294 217.346 79.9026C216.582 80.5856 214.809 80.9271 212.028 80.9271C208.688 80.9271 205.528 80.8179 202.549 80.5995C193.402 79.9288 186.287 82.0209 178.973 81.5418C175.497 81.5418 173.759 81.132 173.759 80.3124V80.1075C174.106 78.9463 174.28 77.1021 174.28 74.575L173.759 65.9689V65.8664C173.759 60.2192 174.489 54.785 174.489 49.5763L173.55 33.1837C173.55 27.4822 171.523 27.2541 173.498 22.5286C174.297 20.6161 174.697 19.4208 174.697 18.9427L172.925 9.92676C172.925 9.38035 174.419 8.03134 177.408 5.87985C180.398 3.72835 182.883 2.65256 184.864 2.65256C186.845 2.65256 189.383 2.89161 192.476 3.36973C195.57 3.84786 197.117 4.32598 197.117 4.80406C197.117 5.62371 196.856 7.79229 196.335 11.3099C195.166 19.1964 194.885 31.7695 194.927 39.792C194.953 44.9078 193.792 45.8396 193.779 49.4339C193.987 51.5513 195.135 56.5261 195.135 57.7214C195.135 59.9041 192.153 67.7827 195.031 66.7373C196.203 66.3116 197.231 65.2517 198.368 65.2517C200.732 65.7298 202.956 65.9689 205.042 65.9689C207.127 65.9689 208.483 65.6615 209.108 65.0468C211.472 62.7245 213.349 59.9924 214.739 56.8505C215.087 56.0309 215.365 55.6211 215.574 55.6211C217.52 55.6211 219.31 56.4407 220.944 58.0799C222.577 59.7192 223.394 61.0852 223.394 62.1781C222.977 64.2954 222.438 65.7469 221.778 66.5323C221.118 67.3178 220.787 67.9496 220.787 68.4277V68.4277ZM221.407 62.0469C221.261 61.2895 219.982 59.9113 219.546 59.4734C218.677 58.6018 217.688 57.9327 216.526 57.692C215.074 60.9857 213.059 63.9327 210.492 66.4549C209.153 67.7705 206.817 67.9429 205.042 67.9429C202.775 67.9429 200.508 67.681 198.285 67.2477C197.973 67.3534 197.29 67.7907 197.089 67.9099C196.644 68.1736 196.193 68.4155 195.705 68.5927C194.828 68.9113 193.887 68.9009 193.091 68.3671C191.043 66.9939 191.948 63.4704 192.393 61.4871C192.572 60.6873 192.767 59.8902 192.939 59.0887C193.02 58.7078 193.161 58.1074 193.161 57.7216C193.159 57.3076 193.029 56.6772 192.958 56.2632C192.805 55.3754 192.633 54.4899 192.466 53.6045C192.222 52.3067 191.943 50.9396 191.814 49.6274L191.804 49.5272V49.4265C191.809 48.1289 191.963 46.9581 192.234 45.694C192.409 44.8767 192.601 44.0739 192.727 43.2461C192.902 42.1045 192.958 40.9562 192.952 39.8023C192.928 35.0597 193.006 30.3038 193.198 25.5651C193.393 20.7552 193.676 15.783 194.382 11.0205C194.589 9.61997 194.792 8.21536 194.961 6.80965C194.996 6.51503 195.038 6.19451 195.073 5.87204C194.139 5.62012 192.74 5.40805 192.174 5.32061C189.799 4.95344 187.271 4.62659 184.864 4.62659C182.827 4.62659 180.147 6.34076 178.561 7.48203C177.877 7.97436 175.848 9.42129 175.008 10.2916L176.671 18.7505V18.9427C176.671 20.1251 175.776 22.1967 175.319 23.2899C174.857 24.3959 174.489 25.4737 174.65 26.6824C174.754 27.4627 174.983 28.2674 175.135 29.0452C175.401 30.4045 175.521 31.7419 175.524 33.1261L176.462 49.5198V49.5763C176.462 55.0117 175.732 60.4225 175.732 65.8664V65.9091L176.254 74.5152V74.575C176.254 76.0546 176.218 77.8289 175.943 79.4037C176.93 79.5504 178.426 79.5678 178.972 79.5678H179.037L179.101 79.5721C179.752 79.6147 180.405 79.6357 181.057 79.6393C184.366 79.6575 187.692 79.2397 190.983 78.9272C194.912 78.5539 198.746 78.3414 202.693 78.6308C205.798 78.8584 208.915 78.9531 212.028 78.9531C212.715 78.9531 215.051 78.896 215.875 78.5183C216.03 78.2284 216.177 77.8949 216.306 77.6239C216.742 76.7036 217.161 75.7735 217.578 74.8439C217.962 73.9851 219.035 71.5512 219.12 70.4986L218.813 68.5854V68.4278C218.813 67.2308 219.524 66.1456 220.267 65.262C220.809 64.6165 221.209 62.9956 221.406 62.047L221.407 62.0469Z" fill="#E95A0E"/>
<path fill-rule="evenodd" clip-rule="evenodd" d="M80.1782 53.9126L79.0576 63.451C79.2614 65.1099 79.8557 66.5787 80.8405 67.8574C81.8253 69.1361 82.997 69.7754 84.3553 69.7754C85.0345 69.7754 85.8156 69.1706 86.6985 67.9611C87.5815 66.7515 88.023 65.4209 88.023 63.9695C87.8871 62.8635 87.8192 61.8268 87.8192 60.8591C87.8192 59.8914 87.9211 59.3039 88.1248 59.0966C89.2115 58.1289 89.7549 57.1958 89.7549 56.2973C88.3286 54.5693 87.6154 53.4634 87.6154 52.9795L89.3474 48.8324V43.1301C89.3474 39.1904 89.2795 37.0476 89.1437 36.7021C89.8907 36.2182 90.2643 35.216 90.2643 33.6954C90.2643 33.1425 89.8568 32.5722 89.0417 31.9847C88.2267 31.3972 87.8192 30.7924 87.8192 30.1703C88.023 27.8894 88.4644 25.8504 89.1437 24.0533C89.2795 23.7769 89.3474 21.8934 89.3474 18.4029C89.3474 14.9124 89.2115 13.0289 88.9398 12.7524C88.1927 11.9921 87.8192 10.0222 87.8192 6.84276C87.8192 6.70451 87.8532 6.53171 87.9211 6.32437C88.2607 5.97875 90.0096 5.06294 93.1678 3.57689C96.3261 2.09084 97.9901 1.34778 98.1599 1.34778C98.3297 1.34778 98.7881 1.55517 99.5352 1.96985C100.282 2.3846 100.86 2.59196 101.267 2.59196C101.675 2.59196 102.014 2.45372 102.286 2.17721C102.558 1.90074 102.88 1.76253 103.254 1.76253C103.627 1.76253 103.882 1.79707 104.018 1.86622C107.754 3.45594 109.621 4.52727 109.621 5.08022C109.621 5.42579 109.265 7.18835 108.552 10.3678C107.838 13.5473 107.482 16.2775 107.482 18.5584C107.482 18.904 107.821 19.3878 108.501 20.0099C109.18 20.6319 109.519 21.1331 109.519 21.5132C109.519 21.8934 109.248 22.5673 108.704 23.5349C108.161 24.5026 107.889 25.021 107.889 25.0901C107.754 29.1681 107.686 33.4881 107.686 38.0499C107.686 44.4587 107.889 50.8563 107.889 57.334C107.889 60.3753 107.923 63.2782 107.991 66.043L108.093 67.4945C108.093 68.6004 106.803 70.9504 104.222 74.5446L102.897 76.3071C98.6863 77.2748 96.1053 78.0005 95.1545 78.4844C93.6603 79.1065 91.7246 80.7307 89.3474 83.3573L88.2267 84.6014C82.5215 84.6014 77.7332 84.2731 73.8618 83.6165C69.9904 82.9598 67.5453 82.3205 66.5265 81.6984L64.9983 80.7653L59.4969 73.9225L57.8668 73.4041C57.5951 73.335 57.1367 72.7821 56.4914 71.7453C55.8462 70.7085 55.5236 70.0692 55.5236 69.8273C55.5236 69.5854 55.6255 69.3607 55.8292 69.1534C56.5084 68.4622 57.0857 66.6996 57.5612 63.8657C58.0366 61.0319 58.2743 58.9065 58.2743 57.4895C58.2743 56.0726 58.1385 55.2259 57.8668 54.9494C57.5951 54.6729 57.4593 53.0486 57.4593 50.0765L57.6631 44.2706C57.6631 42.4044 57.1876 40.9874 56.2367 40.0198C56.2367 38.8447 56.4235 38.0153 56.7971 37.5315C57.1707 37.0476 57.5442 36.5466 57.9178 36.0282C58.2913 35.5098 58.58 35.1469 58.7837 34.9395L59.2931 32.4513C59.2931 32.3822 58.7837 31.8119 57.7649 30.7405C56.7461 29.6692 56.2367 29.0299 56.2367 28.8225C56.2367 28.6152 56.3726 28.1313 56.6443 27.371C57.5951 25.0901 58.0706 23.3621 58.0706 22.1871C58.0706 21.0121 57.5442 18.0918 56.4914 13.4263C55.4387 8.76081 54.9124 6.3935 54.9124 6.32437C54.9124 5.97875 56.899 4.83832 60.8722 2.90301C64.8455 0.96767 67.2736 0 68.1566 0C69.6508 0.691162 70.8733 1.03678 71.8242 1.03678L74.0656 0.622039C75.1522 0.622039 76.3748 0.915839 77.7332 1.50331C79.0916 2.09084 80.1104 2.73017 80.7896 3.42139C79.1595 15.0333 78.3445 21.5996 78.3445 23.1202C79.1595 23.7423 79.567 24.2261 79.567 24.5717L79.4651 26.8526C79.1255 31.4145 78.9557 34.905 78.9557 37.3241C78.9557 40.2053 79.4722 52.9744 80.0764 53.4979C80.1443 53.6362 80.1782 53.7744 80.1782 53.9126V53.9126ZM89.8126 60.2205C89.7924 60.4369 89.7932 60.6962 89.7932 60.8591C89.7932 61.8174 89.8655 62.778 89.9823 63.7288L89.997 63.8487V63.9695C89.997 65.8619 89.4083 67.597 88.293 69.1249C87.3596 70.4036 86.0607 71.7494 84.3553 71.7494C82.2495 71.7494 80.5433 70.7067 79.2765 69.0619C78.0596 67.4819 77.3414 65.6711 77.0983 63.6917L77.0694 63.4563L78.1727 54.065C77.7813 53.088 77.7196 51.7702 77.6393 50.9107C77.4637 49.031 77.3534 47.1359 77.2562 45.2506C77.1213 42.6349 76.9817 39.9427 76.9817 37.3241C76.9817 33.8178 77.2342 30.2318 77.4944 26.7353L77.5704 25.034C77.4273 24.9043 77.2544 24.7716 77.1468 24.6895L76.3704 24.0969V23.1202C76.3704 22.3759 76.4585 21.5767 76.5332 20.8358C76.6685 19.493 76.8305 18.1511 76.9967 16.8119C77.5176 12.6153 78.0956 8.42224 78.6823 4.23379C78.1345 3.86112 77.4976 3.55213 76.9496 3.31513C76.1203 2.95645 75.1495 2.63437 74.2295 2.59923L72.0053 3.01082H71.8242C70.5018 3.01082 69.1104 2.5659 67.8728 2.03486C67.3477 2.17044 66.5969 2.48074 66.2325 2.62853C64.7128 3.24468 63.2105 3.95982 61.7367 4.67773C60.4646 5.29729 59.1868 5.92918 57.9454 6.60838C57.723 6.73009 57.3959 6.90271 57.087 7.0839C57.1533 7.37526 57.2213 7.66582 57.2849 7.95177C57.6593 9.63243 58.0381 11.3122 58.4171 12.9918C58.8491 14.9063 59.2703 16.8338 59.6185 18.7655C59.8108 19.8323 60.0446 21.1033 60.0446 22.1871C60.0446 24.072 59.2056 26.3527 58.4855 28.0846C58.4437 28.2004 58.3946 28.3335 58.3482 28.4691C58.6254 28.7949 58.9718 29.1451 59.1954 29.3802C59.5954 29.8008 59.9966 30.2238 60.3833 30.6566C60.8568 31.1867 61.2672 31.6621 61.2672 32.4513V32.6512L60.6006 35.9071L60.1917 36.3232C59.9585 36.5605 59.714 36.912 59.5193 37.1822C59.1456 37.7009 58.7639 38.2138 58.3734 38.72C58.3065 38.8475 58.2662 39.0922 58.2425 39.3421C59.2716 40.7583 59.6371 42.5069 59.6371 44.2706V44.3052L59.4333 50.1111C59.4333 51.0443 59.4425 51.9867 59.4973 52.9182C59.5138 53.1965 59.5336 53.6518 59.5946 53.9711C60.2192 54.954 60.2484 56.3966 60.2484 57.4895C60.2484 59.6566 59.8662 62.0573 59.508 64.1924C59.2317 65.8395 58.7537 68.4014 57.7084 69.9525C57.8644 70.2251 58.0443 70.5045 58.1674 70.7023C58.3145 70.9387 58.5699 71.358 58.7904 71.6264L60.6624 72.2217L66.321 79.26L67.5552 80.0136C68.7777 80.76 72.7572 81.4269 74.1919 81.6702C78.474 82.3965 82.9903 82.6021 87.3501 82.6251L87.8806 82.0361C89.5572 80.1747 91.9795 77.6965 94.3273 76.6909C95.2069 76.2562 96.333 75.94 97.269 75.6769C98.7494 75.2606 100.252 74.8947 101.752 74.5459L102.631 73.376C103.327 72.4055 105.941 68.6863 106.115 67.5052L106.019 66.1363L106.018 66.0915C105.946 63.173 105.915 60.2534 105.915 57.334C105.915 50.9053 105.712 44.4786 105.712 38.0499C105.712 33.7076 105.772 29.3644 105.917 25.0244C105.953 24.2455 106.613 23.227 106.983 22.5684C107.094 22.3705 107.292 22.0195 107.428 21.7161C107.334 21.6196 107.234 21.5269 107.167 21.4656C106.338 20.7065 105.508 19.7503 105.508 18.5584C105.508 15.6918 105.999 12.7264 106.625 9.93579C106.885 8.77753 107.143 7.61728 107.381 6.45441C107.427 6.23267 107.483 5.98233 107.534 5.73123C106.503 5.07896 104.407 4.17725 103.463 3.77542C102.848 4.29659 102.088 4.56599 101.267 4.56599C100.329 4.56599 99.3833 4.14329 98.5772 3.69581C98.4508 3.62564 98.2968 3.53727 98.1413 3.45512C97.8485 3.58148 97.5511 3.72418 97.2878 3.84302C96.1899 4.33858 95.0982 4.85025 94.0083 5.36308C92.874 5.89679 91.7368 6.43805 90.6227 7.01301C90.3954 7.13032 90.088 7.28139 89.8011 7.43948C89.8293 8.63704 89.9473 10.8094 90.3638 11.3852C91.0575 12.1074 91.1458 13.2798 91.2144 14.2304C91.3138 15.6092 91.3214 17.0207 91.3214 18.4029C91.3214 19.7677 91.3183 21.1405 91.2692 22.5045C91.2458 23.1543 91.2318 24.1046 90.9895 24.751C90.3498 26.4455 89.9926 28.2537 89.8129 30.0548C89.9179 30.1736 90.1058 30.3183 90.1961 30.3834C91.2952 31.1756 92.2383 32.2644 92.2383 33.6954C92.2383 35.0098 91.9971 36.3759 91.2265 37.4123C91.2524 37.8108 91.2598 38.2017 91.2695 38.5058C91.3182 40.0445 91.3214 41.5907 91.3214 43.1301V49.228L89.7403 53.0141C90.1424 53.6733 90.9439 54.6368 91.2773 55.0406L91.7289 55.5878V56.2973C91.7289 57.8552 90.885 59.1671 89.8126 60.2205H89.8126Z" fill="#E95A0E"/>
<path fill-rule="evenodd" clip-rule="evenodd" d="M39.5287 48.9735C39.3901 48.9045 39.2861 48.8703 39.2167 48.8703C36.8588 47.9064 33.9635 47.4244 30.5308 47.4244C27.098 47.4244 24.3761 47.7687 22.3649 48.457C19.1749 49.5587 17.5799 51.0046 17.5799 52.7945C17.5799 53.6895 18.4468 54.137 20.1805 54.137C20.4578 54.137 21.082 54.068 22.0529 53.9303H22.1569C22.4343 53.9303 22.573 54.6534 22.573 56.0991L22.469 58.4742C22.1222 63.2246 21.9489 66.6496 21.9489 68.7497C21.9489 70.8495 22.2609 72.932 22.885 74.9973L23.8213 78.0955C23.8213 78.3021 23.7172 78.474 23.5092 78.6117C22.9544 78.8183 21.8101 79.4725 20.0765 80.5741C15.8462 83.2589 12.8121 84.6014 10.9744 84.6014C9.13669 84.6014 7.43765 84.3775 5.87729 83.9301C4.31692 83.4825 3.08601 83.0178 2.18449 82.5362C1.28295 82.0542 0.832191 81.7099 0.832191 81.5032C0.832191 81.1592 1.19625 80.0059 1.9244 78.0438C2.65256 76.0817 3.01665 74.2745 3.01665 72.6222C3.01665 72.2779 2.66991 71.8821 1.9764 71.4346C1.28295 70.9871 0.936194 70.4534 0.936194 69.8338C0.936194 69.2141 1.16161 68.3537 1.61236 67.2521C2.06314 66.1507 2.28849 65.5655 2.28849 65.4966V65.0836L2.18449 59.9201C2.18449 59.0251 2.2538 57.2007 2.39249 54.4468V54.0338L2.49656 52.1749C2.49656 50.729 2.37518 49.2833 2.13246 47.8377C1.88971 46.3918 1.76837 45.6344 1.76837 45.5655C1.76837 44.2714 1.9764 41.4149 1.9764 38.6465C2.32315 35.2043 2.49656 32.8292 2.49656 31.5209L2.18449 20.1613C3.01666 19.0597 3.43276 18.3714 3.43276 18.0961C3.43276 17.8207 3.12066 17.373 2.49656 16.7533C1.8724 16.4093 1.30027 15.0323 0.78016 12.6228C0.260032 10.2131 0 8.42294 0 7.25262C0 6.77065 2.11512 6.27169 6.34538 5.75525C10.5757 5.23908 12.6908 4.77433 12.6908 4.36105C13.0376 4.15468 13.4883 4.05125 14.0431 4.05125C14.5979 4.05125 16.1582 4.18892 18.7242 4.46453C21.29 4.73984 22.7117 5.01519 22.9891 5.29054L23.4052 6.32315C23.6826 6.94278 24.168 7.25262 24.8615 7.25262C25.555 7.25262 27.4621 6.83962 30.5828 6.01332C33.7035 5.18732 36.4774 4.77433 38.9046 4.77433L42.9615 3.94806C46.4983 4.63641 48.3707 5.04969 48.5788 5.18732C48.7175 5.46268 48.7868 6.13402 48.7868 7.20115C48.7868 8.26804 48.6481 9.55902 48.3707 11.0736V11.2803C46.7757 17.6141 45.5968 21.1595 44.8339 21.9168C44.0711 22.6741 42.5628 23.0356 40.3089 23.0012C38.0551 22.967 36.9282 22.5709 36.9282 21.8136V21.5038C36.9282 19.7828 36.4081 18.4231 35.3678 17.4247C34.3276 16.4265 32.9233 15.9273 31.1549 15.9273C29.3865 15.9273 27.254 16.478 24.7575 17.5796C22.2609 18.6812 21.0126 19.5417 21.0126 20.1613C21.0126 20.299 21.3767 20.6606 22.1049 21.2457C22.833 21.8309 23.1972 22.3645 23.1972 22.8463C23.1972 23.3282 23.0584 23.7412 22.781 24.0855C22.3649 24.7052 22.1569 26.3919 22.1569 29.1458C22.1569 31.8997 22.3303 33.4486 22.677 33.7929C23.0238 34.1372 24.272 34.3093 26.4218 34.3093L41.8173 33.896C43.1349 33.896 43.8804 33.9822 44.0538 34.1544C44.2271 34.3265 44.3138 35.342 44.3138 37.2009C44.3138 39.0595 43.7244 41.4864 42.5454 44.4814C41.3665 47.4761 40.3956 48.9735 39.6328 48.9735H39.5287ZM20.4981 58.3591L20.5972 56.0968C20.4546 56.1058 20.3151 56.111 20.1805 56.111C18.5788 56.111 16.7508 55.7743 15.9409 54.2055C15.7148 53.7674 15.6059 53.2867 15.6059 52.7945C15.6059 49.3737 18.8934 47.5641 21.7226 46.5905C24.4402 45.6552 27.6753 45.4504 30.5308 45.4504C33.4599 45.4504 36.5086 45.7794 39.2851 46.7821C39.8222 45.948 40.4882 44.318 40.7086 43.7583C41.4601 41.849 42.3398 39.2758 42.3398 37.2009C42.3398 36.8677 42.3486 36.3567 42.3341 35.8706C42.1523 35.8686 41.9804 35.8699 41.8445 35.8701L26.4484 36.2834H26.4219C24.9385 36.2834 22.4109 36.3105 21.2862 35.1937C20.6093 34.5215 20.4271 33.5027 20.3252 32.5925C20.1987 31.4626 20.1829 30.2822 20.1829 29.1459C20.1829 27.4874 20.186 24.4426 21.1267 23.0086C21.035 22.921 20.9323 22.8359 20.8684 22.7845C20.0376 22.1169 19.0386 21.339 19.0386 20.1614C19.0386 17.8956 22.2278 16.5382 23.9606 15.7736C26.1708 14.7983 28.7153 13.9533 31.1549 13.9533C33.2412 13.9533 35.2083 14.5356 36.7347 16.0004C38.124 17.3337 38.7768 19.0526 38.8857 20.9262C39.3848 21.0021 40.0464 21.0229 40.3391 21.0274C40.9431 21.0366 42.8833 20.9947 43.4127 20.5439C43.7928 20.0102 44.3156 18.3826 44.5109 17.7814C45.229 15.5714 45.8275 13.2901 46.3967 11.0353V10.8944L46.429 10.718C46.6378 9.57814 46.8128 8.36219 46.8128 7.20117C46.8128 7.07785 46.8139 6.9162 46.8116 6.74438C46.624 6.70499 46.441 6.66833 46.2766 6.63288C45.1777 6.39583 44.0736 6.17639 42.9701 5.96092L39.1037 6.74838H38.9047C36.2955 6.74838 33.6026 7.25597 31.088 7.92164C29.8101 8.25996 28.522 8.59219 27.2299 8.87208C26.5035 9.02943 25.6044 9.22667 24.8615 9.22667C23.3983 9.22667 22.2026 8.46796 21.6035 7.12983L21.5882 7.09565L21.485 6.83947C21.2989 6.80258 21.111 6.77278 20.9704 6.74903C20.1584 6.61184 19.3321 6.51517 18.5135 6.42729C17.4954 6.31799 16.4759 6.21106 15.4559 6.12098C15.0028 6.08097 14.4974 6.0253 14.0432 6.0253C13.9964 6.0253 13.9187 6.02713 13.8443 6.03432C13.2072 6.53248 12.3045 6.77701 11.5281 6.94759C9.92034 7.3008 8.21809 7.51541 6.58461 7.71476C5.32013 7.8691 4.0389 8.03834 2.78778 8.27959C2.60284 8.31523 2.3223 8.36757 2.04049 8.43139C2.17025 9.69832 2.46602 11.0768 2.70981 12.2063C2.83409 12.782 3.24189 14.5403 3.61753 15.1171L3.69141 15.1579L3.88746 15.3525C4.62795 16.0877 5.40685 16.9905 5.40685 18.0961C5.40685 18.992 4.76546 19.9912 4.17672 20.7948L4.47064 31.4938V31.521C4.47064 33.8644 4.18678 36.4081 3.95041 38.7468C3.95021 38.8689 3.94961 38.991 3.94866 39.1131C3.93882 40.3899 3.89125 41.6658 3.83617 42.9414C3.80027 43.7735 3.74705 44.6243 3.74274 45.458C3.82867 46.1335 3.96681 46.8408 4.07931 47.5108C4.33808 49.0522 4.47064 50.6119 4.47064 52.1749V52.2301L4.36659 54.089V54.4965L4.36408 54.5461C4.27525 56.3105 4.15943 58.1342 4.15858 59.9005L4.26258 65.0637V65.4966C4.26258 66.1509 3.69082 67.3853 3.43939 67.9998C3.27295 68.4064 2.97376 69.1782 2.919 69.6853C2.96325 69.7207 3.01432 69.755 3.04678 69.7759C4.05444 70.4262 4.99075 71.3291 4.99075 72.6222C4.99075 74.7087 4.49797 76.7828 3.77517 78.7306C3.52543 79.4035 3.27848 80.0812 3.0556 80.7635C3.07636 80.7746 3.09624 80.7852 3.11502 80.7952C4.11794 81.3312 5.33164 81.72 6.42156 82.0326C7.89929 82.4564 9.43986 82.6274 10.9745 82.6274C13.0042 82.6274 17.3501 79.9668 19.0184 78.9076C19.7371 78.4513 20.654 77.8491 21.5388 77.3662L20.9955 75.5683C20.3256 73.3516 19.9749 71.0655 19.9749 68.7497C19.9749 65.3238 20.2486 61.7767 20.4982 58.3591L20.4981 58.3591Z" fill="#E95A0E"/>
</svg>
