<svg width="30" height="30" viewBox="0 0 30 30" fill="none" xmlns="http://www.w3.org/2000/svg">
<path d="M18.75 1.24969H11.25V3.74969H18.75V1.24969ZM13.75 17.4997H16.25V9.99969H13.75V17.4997ZM23.7812 9.23095L25.5625 7.44969C25.025 6.80594 24.4375 6.21844 23.7938 5.68094L22.0125 7.46219C20.0938 5.92469 17.65 4.99969 14.9937 4.99969C8.775 4.99969 3.75 10.0372 3.75 16.2497C3.75 22.4622 8.775 27.4997 14.9937 27.4997C21.2125 27.4997 26.25 22.4622 26.25 16.2497C26.25 13.5934 25.325 11.1559 23.7812 9.23095ZM15 24.9997C10.1687 24.9997 6.25 21.0809 6.25 16.2497C6.25 11.4184 10.1687 7.49969 15 7.49969C19.8312 7.49969 23.75 11.4184 23.75 16.2497C23.75 21.0809 19.8312 24.9997 15 24.9997Z" fill="#6C6C6C"/>
</svg>
