<svg width="26" height="26" viewBox="0 0 26 26" fill="none" xmlns="http://www.w3.org/2000/svg">
<path fill-rule="evenodd" clip-rule="evenodd" d="M13.8101 5.68344V6.49512C13.7955 7.215 12.6312 7.62531 12.2631 6.83881C12.2136 6.73237 12.1892 6.61456 12.1867 6.49512V5.68344H9.7525C9.12769 5.65337 8.70925 4.83681 9.13906 4.34037C9.28694 4.16975 9.40637 4.07713 9.7525 4.06006C10.5634 4.06006 11.3751 4.05762 12.1867 4.05275V3.24919C12.1892 3.11675 12.2022 3.07369 12.2274 2.99488C12.3346 2.66906 12.6556 2.4375 13.0147 2.4375C13.4477 2.45456 13.8004 2.77875 13.8101 3.24919V4.043C15.4327 4.03325 17.0561 4.02431 18.6794 4.03244V3.24919C18.6876 2.81531 19.0044 2.45619 19.4749 2.4375C19.4854 2.4375 19.496 2.4375 19.5066 2.4375C19.9404 2.45456 20.2931 2.77875 20.302 3.24919V4.04706C20.5929 4.05112 20.8837 4.056 21.1738 4.06088C22.4177 4.09987 23.5244 5.16994 23.5479 6.46506C23.5788 11.3539 23.5788 16.2435 23.5479 21.1331C23.5252 22.3884 22.4389 23.5129 21.1437 23.5373C15.7138 23.5706 10.2831 23.5706 4.85312 23.5373C3.60269 23.5137 2.47331 22.4494 2.44894 21.1331C2.41806 16.2435 2.41806 11.3539 2.44894 6.46506C2.47169 5.20081 3.55475 4.069 4.88075 4.06006H5.69487V3.24919C5.69731 3.11675 5.7095 3.07369 5.7355 2.99488C5.84275 2.66906 6.16369 2.4375 6.522 2.4375C6.95587 2.45456 7.3085 2.77875 7.31744 3.24919V6.49512C7.30362 7.21419 6.17262 7.61719 5.78506 6.86806C5.72575 6.7535 5.69731 6.62594 5.69487 6.49512V5.68019C5.417 5.67856 5.13994 5.67856 4.86287 5.68344C4.45094 5.69644 4.0845 6.05719 4.0715 6.47481C3.98131 11.3563 3.9805 16.2411 4.0715 21.1226C4.0845 21.5353 4.44525 21.9009 4.86287 21.9139C10.2855 22.0147 15.7114 22.0147 21.134 21.9139C21.5459 21.9009 21.9124 21.5402 21.9254 21.1226C22.0156 16.2411 22.0156 11.3563 21.9254 6.47481C21.9124 6.05475 21.5378 5.68587 21.1112 5.68344H20.302V6.49512C20.2882 7.20769 19.1539 7.60987 18.7696 6.86806C18.7111 6.7535 18.6819 6.62594 18.6794 6.49512V5.68344H13.8101ZM6.50575 18.668C6.95425 18.668 7.31744 19.032 7.31744 19.4797C7.31744 19.9274 6.95425 20.2914 6.50575 20.2914C6.05806 20.2914 5.69487 19.9274 5.69487 19.4797C5.69487 19.032 6.05806 18.668 6.50575 18.668ZM9.7525 18.668C10.2002 18.668 10.5634 19.032 10.5634 19.4797C10.5634 19.9274 10.2002 20.2914 9.7525 20.2914C9.304 20.2914 8.94081 19.9274 8.94081 19.4797C8.94081 19.032 9.304 18.668 9.7525 18.668ZM12.9984 18.668C13.4461 18.668 13.8101 19.032 13.8101 19.4797C13.8101 19.9274 13.4461 20.2914 12.9984 20.2914C12.5507 20.2914 12.1867 19.9274 12.1867 19.4797C12.1867 19.032 12.5507 18.668 12.9984 18.668ZM6.50575 15.4221C6.95425 15.4221 7.31744 15.7852 7.31744 16.2337C7.31744 16.6814 6.95425 17.0446 6.50575 17.0446C6.05806 17.0446 5.69487 16.6814 5.69487 16.2337C5.69487 15.7852 6.05806 15.4221 6.50575 15.4221ZM9.7525 15.4221C10.2002 15.4221 10.5634 15.7852 10.5634 16.2337C10.5634 16.6814 10.2002 17.0446 9.7525 17.0446C9.304 17.0446 8.94081 16.6814 8.94081 16.2337C8.94081 15.7852 9.304 15.4221 9.7525 15.4221ZM12.9984 15.4221C13.4461 15.4221 13.8101 15.7852 13.8101 16.2337C13.8101 16.6814 13.4461 17.0446 12.9984 17.0446C12.5507 17.0446 12.1867 16.6814 12.1867 16.2337C12.1867 15.7852 12.5507 15.4221 12.9984 15.4221ZM16.2444 15.4221C16.6921 15.4221 17.0561 15.7852 17.0561 16.2337C17.0561 16.6814 16.6921 17.0446 16.2444 17.0446C15.7967 17.0446 15.4327 16.6814 15.4327 16.2337C15.4327 15.7852 15.7967 15.4221 16.2444 15.4221ZM19.4903 15.4221C19.9388 15.4221 20.302 15.7852 20.302 16.2337C20.302 16.6814 19.9388 17.0446 19.4903 17.0446C19.0426 17.0446 18.6794 16.6814 18.6794 16.2337C18.6794 15.7852 19.0426 15.4221 19.4903 15.4221ZM9.7525 12.1761C10.2002 12.1761 10.5634 12.5393 10.5634 12.987C10.5634 13.4355 10.2002 13.7987 9.7525 13.7987C9.304 13.7987 8.94081 13.4355 8.94081 12.987C8.94081 12.5393 9.304 12.1761 9.7525 12.1761ZM12.9984 12.1761C13.4461 12.1761 13.8101 12.5393 13.8101 12.987C13.8101 13.4355 13.4461 13.7987 12.9984 13.7987C12.5507 13.7987 12.1867 13.4355 12.1867 12.987C12.1867 12.5393 12.5507 12.1761 12.9984 12.1761ZM16.2444 12.1761C16.6921 12.1761 17.0561 12.5393 17.0561 12.987C17.0561 13.4355 16.6921 13.7987 16.2444 13.7987C15.7967 13.7987 15.4327 13.4355 15.4327 12.987C15.4327 12.5393 15.7967 12.1761 16.2444 12.1761ZM19.4903 12.1761C19.9388 12.1761 20.302 12.5393 20.302 12.987C20.302 13.4355 19.9388 13.7987 19.4903 13.7987C19.0426 13.7987 18.6794 13.4355 18.6794 12.987C18.6794 12.5393 19.0426 12.1761 19.4903 12.1761Z" fill="#6C6C6C"/>
</svg>
