<svg width="66" height="61" viewBox="0 0 66 61" fill="none" xmlns="http://www.w3.org/2000/svg">
<path d="M54.0838 47.619H52.7317V48.9697H54.0838V47.619Z" fill="#E95A0E"/>
<path d="M60.8942 23.186H59.5422V24.5367H60.8942V23.186Z" fill="#E95A0E"/>
<path d="M46.234 24.1284H44.8821V25.479H46.234V24.1284Z" fill="#E95A0E"/>
<path d="M61.5702 54.0003H60.2183V55.3509H61.5702V54.0003Z" fill="#E95A0E"/>
<path d="M49.2464 55.2834H47.8943V56.634H49.2464V55.2834Z" fill="#E95A0E"/>
<path d="M59.09 9.4864C58.454 9.14093 58.0586 8.47733 58.0586 7.75448V5.72075C58.831 5.5899 59.4219 4.91851 59.4219 4.11003V1.77108C59.4219 0.869325 58.6874 0.135559 57.7848 0.135559H46.4855C45.5828 0.135559 44.8484 0.869325 44.8484 1.77108V4.11003C44.8484 4.91822 45.4388 5.58976 46.211 5.7206V7.75448C46.211 8.10861 46.1151 8.45678 45.9336 8.76114C45.7515 9.06636 45.4907 9.31742 45.1798 9.48626C40.9178 11.7997 38.2702 16.2471 38.2702 21.093V22.4772H8.56584C6.5095 22.4772 4.7916 24.0173 4.57008 26.0595L3.19531 38.7249L4.60599 38.8777L5.98076 26.2123C6.12423 24.8912 7.23548 23.8948 8.56584 23.8948H39.6305C40.9608 23.8948 42.0721 24.8911 42.2155 26.2123L43.5892 38.8663L44.9999 38.7134L44.2164 31.4956H57.2678V43.2835H48.7388V44.7011H58.6868V26.8389H43.7108L43.6262 26.0595C43.4067 24.0368 41.7193 22.5076 39.6892 22.4786V21.0931C39.6892 20.5305 39.7299 19.974 39.808 19.4268C41.23 19.5869 42.04 20.1596 42.9533 20.8092C44.0675 21.6016 45.3305 22.5 47.7498 22.5C50.1692 22.5 51.4321 21.6016 52.5466 20.8092C53.624 20.0429 54.5543 19.3812 56.5202 19.3812C58.4862 19.3812 59.4165 20.0429 60.494 20.8092C61.4933 21.52 62.6152 22.3136 64.5809 22.4702V55.9598C64.5809 57.4348 63.3802 58.6349 61.9045 58.6349H44.6461V60.0525H61.9045C64.1627 60.0525 65.9999 58.2165 65.9999 55.9598V21.0945C65.9999 16.2475 63.3522 11.7997 59.09 9.4864ZM57.2678 28.2564V30.0778H44.0626L43.8648 28.2564H57.2678ZM46.2676 1.77108C46.2676 1.65087 46.3654 1.55319 46.4856 1.55319H57.7849C57.9052 1.55319 58.003 1.65087 58.003 1.77108V4.11003C58.003 4.23025 57.9052 4.32792 57.7849 4.32792H46.4856C46.3654 4.32792 46.2676 4.23025 46.2676 4.11003V1.77108ZM61.317 19.6541C60.2027 18.8615 58.9397 17.9633 56.5202 17.9633C54.1009 17.9633 52.838 18.8615 51.7234 19.6541C50.6461 20.4203 49.7158 21.0821 47.7498 21.0821C45.784 21.0821 44.8536 20.4203 43.7762 19.6541C42.8473 18.9933 41.8125 18.2611 40.0931 18.0352C40.9195 14.9563 42.9742 12.2967 45.8578 10.7315C46.3927 10.4408 46.8405 10.0102 47.1528 9.48654C47.2671 9.29474 47.3613 9.09287 47.4352 8.88405H54.0803V7.46642H47.6301V5.7457H56.6396V7.75448C56.6396 8.99732 57.3189 10.1381 58.4124 10.7319C62.2041 12.7901 64.5638 16.7406 64.5799 21.0499C63.0831 20.9094 62.2555 20.3215 61.317 19.6541Z" fill="#E95A0E"/>
<path d="M11.746 14.0081H10.3269V16.1413H11.746V14.0081Z" fill="#E95A0E"/>
<path d="M11.746 17.6548H10.3269V19.788H11.746V17.6548Z" fill="#E95A0E"/>
<path d="M10.2789 16.1893H8.14355V17.6069H10.2789V16.1893Z" fill="#E95A0E"/>
<path d="M13.9293 16.1893H11.7939V17.6069H13.9293V16.1893Z" fill="#E95A0E"/>
<path d="M35.6075 3.50003H34.1885V5.63328H35.6075V3.50003Z" fill="#E95A0E"/>
<path d="M35.6075 7.14673H34.1885V9.27998H35.6075V7.14673Z" fill="#E95A0E"/>
<path d="M34.1404 5.68121H32.0049V7.09885H34.1404V5.68121Z" fill="#E95A0E"/>
<path d="M37.7905 5.68121H35.6553V7.09885H37.7905V5.68121Z" fill="#E95A0E"/>
<path d="M45.9013 50.6293C47.1768 50.6127 48.2095 49.5723 48.2095 48.2942C48.2095 47.0161 47.1766 45.9758 45.9009 45.9592C45.9009 45.9552 45.9013 45.9511 45.9013 45.9472C45.9013 44.105 45.1665 42.0447 43.9357 40.4363C42.5599 38.638 40.7999 37.6478 38.9801 37.6478C38.4627 37.6478 37.9504 37.7306 37.4502 37.8865C36.1347 35.196 33.8558 33.4924 31.4994 33.4924C29.155 33.4924 26.8793 35.1875 25.5596 37.8634C25.0832 37.7225 24.5963 37.6478 24.1048 37.6478C23.5779 37.6478 23.0565 37.7334 22.5477 37.8947C21.2325 35.1991 18.9522 33.4923 16.5926 33.4923C14.254 33.4923 11.9814 35.1812 10.6619 37.8475C10.2018 37.7164 9.73211 37.6478 9.25829 37.6478C7.43808 37.6478 5.67803 38.638 4.30227 40.4363C3.07181 42.0446 2.33717 44.1047 2.33717 45.9472C2.33717 45.9507 2.33745 45.9543 2.33745 45.9578C1.04853 45.9586 0 47.0063 0 48.2941C0 49.5818 1.04797 50.6293 2.3366 50.6305V53.3912C2.3366 57.099 5.35605 60.1156 9.06771 60.1156C11.8567 60.1156 14.2549 58.412 15.2748 55.9919H17.9088C18.9238 58.4225 21.327 60.1355 24.1235 60.1355C26.9202 60.1355 29.3232 58.4225 30.3384 55.9919H32.9629C33.8646 58.1314 35.8437 59.7097 38.2175 60.0471V60.0515C38.2268 60.0515 38.2364 60.0506 38.2457 60.0506C38.5481 60.0922 38.8563 60.1154 39.1699 60.1154C42.8815 60.1154 45.9012 57.099 45.9012 53.391V50.6293H45.9013ZM38.9802 39.0656C41.9435 39.0656 44.4823 42.8495 44.4823 45.9473C44.4823 45.9507 44.482 45.9544 44.482 45.9579H33.4786C33.4786 45.9544 33.4783 45.9507 33.4783 45.9473C33.4783 42.8496 36.0171 39.0656 38.9802 39.0656ZM31.4996 34.9102C33.5163 34.9102 35.2241 36.6192 36.1567 38.4753C35.3849 38.9436 34.6629 39.6016 34.0243 40.4364C32.7937 42.0447 32.0591 44.1048 32.0591 45.9473C32.0591 45.9507 32.0594 45.9544 32.0595 45.9579H31.0256C31.0256 45.9544 31.0259 45.9507 31.0259 45.9473C31.0259 44.1051 30.2911 42.0449 29.0604 40.4364C28.4035 39.5777 27.6585 38.9059 26.8618 38.4357C27.7991 36.5983 29.5008 34.9102 31.4996 34.9102ZM24.1048 39.0656C27.068 39.0656 29.6067 42.8495 29.6067 45.9473C29.6067 45.9507 29.6064 45.9544 29.6064 45.9579H18.603C18.603 45.9544 18.6027 45.9507 18.6027 45.9473C18.6028 42.8496 21.1418 39.0656 24.1048 39.0656ZM16.5928 34.9102C18.6151 34.9102 20.3257 36.6267 21.2575 38.4897C20.4946 38.9571 19.7809 39.6102 19.1489 40.4364C17.9184 42.0447 17.1838 44.1048 17.1838 45.9473C17.1838 45.9507 17.1841 45.9544 17.1841 45.9579H16.1793C16.1793 45.9544 16.1795 45.9507 16.1795 45.9473C16.1795 44.1051 15.4448 42.0449 14.2139 40.4364C13.5445 39.5616 12.784 38.8798 11.9702 38.4085C12.9082 36.5838 14.6041 34.9102 16.5928 34.9102ZM9.25843 39.0656C12.2215 39.0656 14.7604 42.8495 14.7604 45.9473C14.7604 45.9507 14.7601 45.9544 14.7601 45.9579H3.75678C3.75678 45.9544 3.7565 45.9507 3.7565 45.9473C3.7565 42.8496 6.29532 39.0656 9.25843 39.0656ZM3.75593 53.3914V50.6309H4.64511V53.3679C4.64511 54.9792 5.09991 56.4591 5.85612 57.6146C4.58082 56.6442 3.75593 55.1126 3.75593 53.3914ZM15.6927 54.5746C15.7612 54.1903 15.7991 53.7953 15.7991 53.3914V53.0396C15.7991 52.6032 16.1544 52.2483 16.6004 52.2483C17.0372 52.2483 17.3925 52.6032 17.3925 53.0396V53.4113C17.3925 53.8082 17.4292 54.1964 17.4954 54.5746H15.6927ZM30.7519 54.5746C30.8183 54.1964 30.8549 53.8082 30.8549 53.4113V53.0396C30.8549 52.6032 31.2102 52.2483 31.6469 52.2483C32.0836 52.2483 32.439 52.6032 32.439 53.0396V53.3914C32.439 53.7953 32.4769 54.1903 32.5454 54.5746H30.7519ZM42.1021 53.3679C42.1021 56.2226 40.4179 58.5522 38.326 58.6304C35.7969 58.2253 33.8582 56.0305 33.8582 53.3914V53.0396C33.8582 51.8216 32.8663 50.8306 31.647 50.8306C30.4278 50.8306 29.436 51.8216 29.436 53.0396V53.4113C29.436 56.3376 27.053 58.7182 24.1238 58.7182C21.1947 58.7182 18.8117 56.3376 18.8117 53.4113V53.0396C18.8117 51.8216 17.8198 50.8306 16.5912 50.8306C15.3721 50.8306 14.3802 51.8216 14.3802 53.0396V53.3914C14.3802 56.0346 12.4357 58.2321 9.90069 58.6326C7.78092 58.5974 6.0643 56.25 6.0643 53.3679V50.6309H42.1023V53.3679H42.1021ZM44.4823 53.3914C44.4823 55.1764 43.5945 56.7572 42.2382 57.7196C43.0368 56.5492 43.5212 55.0291 43.5212 53.3679V50.6309H44.4823V53.3914ZM2.33916 49.2133C1.83199 49.2133 1.41947 48.801 1.41947 48.2943C1.41947 47.7878 1.83199 47.3757 2.33916 47.3757H45.8707C46.3778 47.3757 46.7905 47.7878 46.7905 48.2943C46.7905 48.801 46.3778 49.2133 45.8707 49.2133H2.33916ZM11.1161 26.8796C11.1161 25.8561 10.2827 25.0233 9.25814 25.0233C8.23359 25.0233 7.40004 25.8561 7.40004 26.8796C7.40004 27.9031 8.23359 28.7358 9.25814 28.7358C10.2827 28.7358 11.1161 27.9031 11.1161 26.8796ZM8.81923 26.8796C8.81923 26.6377 9.0162 26.441 9.25829 26.441C9.50023 26.441 9.6972 26.6377 9.6972 26.8796C9.6972 27.1214 9.50023 27.3182 9.25829 27.3182C9.01605 27.3182 8.81923 27.1214 8.81923 26.8796ZM38.9799 28.7358C40.0046 28.7358 40.838 27.9031 40.838 26.8796C40.838 25.8561 40.0046 25.0233 38.9799 25.0233C37.9555 25.0233 37.1218 25.8561 37.1218 26.8796C37.1218 27.9031 37.9555 28.7358 38.9799 28.7358ZM38.9799 26.441C39.222 26.441 39.419 26.6377 39.419 26.8796C39.419 27.1214 39.222 27.3182 38.9799 27.3182C38.738 27.3182 38.5409 27.1214 38.5409 26.8796C38.5409 26.6377 38.738 26.441 38.9799 26.441Z" fill="#E95A0E"/>
<path d="M35.4266 26.2466H32.6531V27.6643H35.4266V26.2466Z" fill="#E95A0E"/>
<path d="M30.9963 26.2466H12.9119V27.6643H30.9963V26.2466Z" fill="#E95A0E"/>
<path d="M62.5668 46.842H61.1477V49.0636H62.5668V46.842Z" fill="#E95A0E"/>
<path d="M62.5668 26.7788H61.1477V44.8159H62.5668V26.7788Z" fill="#E95A0E"/>
</svg>
