<svg width="30" height="30" viewBox="0 0 30 30" fill="none" xmlns="http://www.w3.org/2000/svg">
<path d="M14.9998 0C6.72389 0 -0.000244141 6.72414 -0.000244141 15C-0.000244141 23.2759 6.72389 30 14.9998 30C23.2756 30 29.9998 23.2759 29.9998 15C29.9998 6.72414 23.2756 0 14.9998 0ZM14.9998 29.0596C7.24113 29.0596 0.940195 22.7586 0.940195 15C0.940195 7.24138 7.24113 0.940439 14.9998 0.940439C22.7584 0.940439 29.0593 7.24138 29.0593 15C29.0593 22.7586 22.7584 29.0596 14.9998 29.0596Z" fill="#E95A0E"/>
<path d="M26.003 8.65283C26.003 8.60581 25.956 8.60581 25.956 8.60581C24.8275 6.67791 23.2757 5.12619 21.3478 3.99766C21.3478 3.99766 21.3478 3.99766 21.3008 3.99766C21.3008 3.99766 21.3008 3.99766 21.2538 3.99766C19.467 2.91616 17.304 2.30487 14.9999 2.30487C12.6958 2.30487 10.5328 2.91616 8.65192 3.99766C8.65192 3.99766 8.65192 3.99766 8.60489 3.99766C8.60489 3.99766 8.60489 3.99766 8.55787 3.99766C6.62997 5.12619 5.07825 6.67791 3.94972 8.60581C3.94972 8.60581 3.94972 8.60581 3.94972 8.65283C3.94972 8.65283 3.94972 8.65283 3.94972 8.69985C2.91524 10.5337 2.30396 12.6967 2.30396 15.0008C2.30396 17.3049 2.91524 19.4679 3.99674 21.3488C3.99674 21.3488 3.99674 21.3488 3.99674 21.3958C3.99674 21.3958 3.99674 21.4428 4.04377 21.4428C5.17229 23.3237 6.72402 24.9224 8.65192 26.0509C8.65192 26.0509 8.65192 26.0509 8.69894 26.0509H8.74596C10.6268 27.1324 12.7428 27.7437 15.0469 27.7437C17.351 27.7437 19.514 27.1324 21.3478 26.0509H21.3949C21.3949 26.0509 21.3949 26.0509 21.4419 26.0509C23.3228 24.9224 24.9215 23.3707 26.05 21.4428C26.05 21.4428 26.05 21.4428 26.0971 21.3958C26.0971 21.3958 26.0971 21.3958 26.0971 21.3488C27.1786 19.4679 27.7898 17.3049 27.7898 15.0008C27.6958 12.6967 27.0845 10.5337 26.003 8.65283ZM25.4387 20.5024L23.6989 19.4679C23.4638 19.3268 23.1817 19.4209 23.0406 19.656C22.8996 19.8911 22.9936 20.1732 23.2287 20.3143L24.9685 21.3488C24.0281 22.8064 22.7585 24.076 21.3008 25.0165L20.2663 23.2766C20.1253 23.0415 19.8431 22.9945 19.608 23.0886C19.3729 23.2296 19.3259 23.5118 19.4199 23.7469L20.4544 25.4867C18.9497 26.2861 17.2569 26.7563 15.4231 26.8503V24.8284C15.4231 24.5462 15.235 24.3582 14.9529 24.3582C14.7177 24.3582 14.4826 24.5462 14.4826 24.8284V26.7563C12.6958 26.6622 10.956 26.192 9.45129 25.3926L10.4858 23.6528C10.6268 23.4177 10.5328 23.1356 10.2977 22.9945C10.0626 22.8535 9.78044 22.9475 9.63938 23.1826L8.60489 24.9224C7.14721 23.982 5.87762 22.7124 4.93718 21.2547L6.677 20.2202C6.9121 20.0792 6.95913 19.797 6.86508 19.5619C6.72402 19.3268 6.44189 19.2798 6.20678 19.3738L4.46696 20.4083C3.76164 18.9506 3.29142 17.2578 3.24439 15.471H5.26634C5.54847 15.471 5.73656 15.2829 5.73656 15.0008C5.73656 14.7657 5.54847 14.5306 5.26634 14.5306H3.24439C3.33844 12.7437 3.80866 11.0039 4.60803 9.49923L6.34784 10.5337C6.44189 10.5807 6.48891 10.5807 6.58295 10.5807C6.72402 10.5807 6.9121 10.4867 7.00615 10.3456C7.14721 10.1105 7.05317 9.82838 6.81806 9.68731L5.07825 8.65283C6.01869 7.19515 7.28828 5.92556 8.74596 4.98512L9.78044 6.72493C9.87449 6.866 10.0156 6.96004 10.2036 6.96004C10.2977 6.96004 10.3447 6.96004 10.4387 6.91302C10.6739 6.77195 10.7209 6.48982 10.6268 6.25471L9.59235 4.5149C11.05 3.76255 12.7428 3.29233 14.5297 3.24531V5.26725C14.5297 5.54938 14.7177 5.73747 14.9999 5.73747C15.235 5.73747 15.4701 5.54938 15.4701 5.26725V3.24531C17.2569 3.33935 18.9967 3.80957 20.5014 4.60894L19.467 6.34876C19.3259 6.58387 19.4199 6.866 19.6551 7.00706C19.7491 7.05409 19.7961 7.05409 19.8902 7.05409C20.0312 7.05409 20.2193 6.96004 20.3134 6.81898L21.3478 5.07916C22.8055 6.0196 24.0751 7.2892 25.0155 8.74688L23.2757 9.78136C23.0406 9.92242 22.9936 10.2046 23.0877 10.4397C23.1817 10.5807 23.3228 10.6748 23.5108 10.6748C23.6049 10.6748 23.6519 10.6748 23.746 10.6278L25.4858 9.59327C26.2851 11.098 26.7554 12.7908 26.8494 14.6246H24.8275C24.5453 14.6246 24.3572 14.8127 24.3572 15.0948C24.3572 15.3299 24.5453 15.5651 24.8275 15.5651H26.7554C26.7083 17.2578 26.2381 18.9506 25.4387 20.5024Z" fill="#E95A0E"/>
<path d="M21.1128 14.5304H16.9748C16.7397 13.637 15.9404 12.9316 14.9999 12.9316C14.6237 12.9316 14.2476 13.0727 13.9184 13.2608L9.49835 8.84071C9.31026 8.65262 9.02813 8.65262 8.84004 8.84071C8.65195 9.0288 8.65195 9.31093 8.84004 9.49902L13.2601 13.9191C13.072 14.2482 12.931 14.5774 12.931 15.0006C12.931 16.1291 13.8714 17.0696 14.9999 17.0696C15.9874 17.0696 16.7867 16.4112 16.9748 15.4708H21.1128C21.3949 15.4708 21.583 15.2827 21.583 15.0006C21.583 14.7655 21.3949 14.5304 21.1128 14.5304ZM14.9999 16.1291C14.3886 16.1291 13.8714 15.6119 13.8714 15.0006C13.8714 14.6714 14.0125 14.4363 14.2005 14.2012C14.3886 14.0131 14.6708 13.8721 14.9999 13.8721C15.6112 13.8721 16.1284 14.3893 16.1284 15.0006C16.1284 15.6119 15.6112 16.1291 14.9999 16.1291Z" fill="#E95A0E"/>
</svg>
