<svg width="1448" height="854" viewBox="0 0 1448 854" fill="none" xmlns="http://www.w3.org/2000/svg">
<path d="M40.1933 116.949L21.0018 93.0993C7.41019 76.2088 0 55.18 0 33.5V837.231C0 810.559 9.18097 784.7 26 764L47.4355 739.406C64.6409 719.665 85.5912 703.533 109.074 691.944C136.325 678.495 166.307 671.5 196.696 671.5H1231H1237.89C1279.01 671.5 1319.18 659.118 1353.16 635.966L1354.17 635.281C1371.94 623.175 1387.61 608.246 1400.56 591.085C1413.11 574.466 1422.95 555.967 1429.71 536.273L1436.55 516.339C1444.13 494.266 1448 471.089 1448 447.75C1448 424.411 1444.13 401.234 1436.55 379.161L1432.64 367.753C1423.92 342.379 1411.65 318.371 1396.19 296.447L1379.7 273.069C1365.72 253.237 1347.78 236.512 1327.03 223.944C1299.53 207.299 1268.01 198.5 1235.87 198.5H242.288C223.801 198.5 205.354 196.809 187.175 193.449L162.446 188.879C127.408 182.402 94.6296 167.004 67.2756 144.169L65.3452 142.558C56.1376 134.871 47.7127 126.293 40.1933 116.949Z" fill="white"/>
</svg>
