<svg width="178" height="189" viewBox="0 0 178 189" fill="none" xmlns="http://www.w3.org/2000/svg">
<path d="M9.4638 57.4408L10.5 60.5L23 86.5L33.2825 104.923C34.4255 106.971 35.7363 108.92 37.2015 110.752C46.3835 122.229 56.5351 132.896 67.5442 142.635L73.6111 148.002C75.4777 146.983 75.6828 146.897 73.6703 148.055L77 151L90.5638 160.545C99.4975 166.832 109.055 172.181 119.086 176.508L119.711 176.777C126.229 179.589 132.939 181.932 139.79 183.79L140.662 184.027C152.834 187.328 165.389 189 178 189H0V0C0 19.535 3.19685 38.9383 9.4638 57.4408Z" fill="white"/>
</svg>
