<svg width="42" height="30" viewBox="0 0 42 30" fill="none" xmlns="http://www.w3.org/2000/svg">
<path fill-rule="evenodd" clip-rule="evenodd" d="M41.125 4.9375C41.125 3.79325 40.6708 2.69643 39.8629 1.88856C39.0536 1.07925 37.9567 0.625 36.8125 0.625C29.8507 0.625 12.1493 0.625 5.1875 0.625C4.04469 0.625 2.94788 1.07925 2.13857 1.88856C1.32926 2.69643 0.875 3.79325 0.875 4.9375C0.875 9.91556 0.875 20.0844 0.875 25.0625C0.875 26.2068 1.32926 27.3036 2.13857 28.1114C2.94788 28.9208 4.04469 29.375 5.1875 29.375C12.1493 29.375 29.8507 29.375 36.8125 29.375C37.9567 29.375 39.0536 28.9208 39.8629 28.1114C40.6708 27.3036 41.125 26.2068 41.125 25.0625V4.9375ZM38.25 4.9375V25.0625C38.25 25.4434 38.0991 25.81 37.8303 26.0788C37.56 26.3491 37.1949 26.5 36.8125 26.5C29.8507 26.5 12.1493 26.5 5.1875 26.5C4.80656 26.5 4.44144 26.3491 4.17119 26.0788C3.90237 25.81 3.75 25.4434 3.75 25.0625C3.75 20.0844 3.75 9.91556 3.75 4.9375C3.75 4.55656 3.90237 4.19 4.17119 3.92119C4.44144 3.65094 4.80656 3.5 5.1875 3.5C12.1493 3.5 29.8507 3.5 36.8125 3.5C37.1949 3.5 37.56 3.65094 37.8303 3.92119C38.0991 4.19 38.25 4.55656 38.25 4.9375ZM33.9375 20.75H31.0625C30.2704 20.75 29.625 21.394 29.625 22.1875C29.625 22.981 30.2704 23.625 31.0625 23.625H33.9375C34.731 23.625 35.375 22.981 35.375 22.1875C35.375 21.394 34.731 20.75 33.9375 20.75ZM19.5625 20.75H8.0625C7.27044 20.75 6.625 21.394 6.625 22.1875C6.625 22.981 7.27044 23.625 8.0625 23.625H19.5625C20.356 23.625 21 22.981 21 22.1875C21 21.394 20.356 20.75 19.5625 20.75ZM33.9375 15H8.0625C7.27044 15 6.625 15.644 6.625 16.4375C6.625 17.231 7.27044 17.875 8.0625 17.875H33.9375C34.731 17.875 35.375 17.231 35.375 16.4375C35.375 15.644 34.731 15 33.9375 15ZM15.25 7.8125C15.25 7.019 14.6074 6.375 13.8125 6.375H8.0625C7.269 6.375 6.625 7.019 6.625 7.8125V10.6875C6.625 11.481 7.269 12.125 8.0625 12.125H13.8125C14.6074 12.125 15.25 11.481 15.25 10.6875V7.8125Z" fill="#1E1E1E"/>
</svg>
