<svg width="36" height="36" viewBox="0 0 36 36" fill="none" xmlns="http://www.w3.org/2000/svg">
<path d="M26.9895 2.34C19.9722 -1.62 11.3356 -0.36 5.57783 5.04V1.8C5.57783 0.72 4.85811 0 3.77853 0C2.69895 0 1.97923 0.72 1.97923 1.8V9.9C1.97923 10.98 2.69895 11.7 3.77853 11.7H11.8754C12.955 11.7 13.6747 10.98 13.6747 9.9C13.6747 8.82 12.955 8.1 11.8754 8.1H7.55706C10.256 5.22 14.0345 3.6 17.993 3.6C25.9099 3.6 32.3874 10.08 32.3874 18C32.3874 25.92 25.9099 32.4 17.993 32.4C10.0761 32.4 3.5986 25.92 3.5986 18C3.5986 16.92 2.87888 16.2 1.7993 16.2C0.71972 16.2 0 16.92 0 18C0 27.9 8.09685 36 17.993 36C24.4705 36 30.4082 32.58 33.6469 27C38.505 18.36 35.6261 7.38 26.9895 2.34ZM17.993 10.8C16.9134 10.8 16.1937 11.52 16.1937 12.6V18C16.1937 19.08 16.9134 19.8 17.993 19.8H21.5916C22.6712 19.8 23.3909 19.08 23.3909 18C23.3909 16.92 22.6712 16.2 21.5916 16.2H19.7923V12.6C19.7923 11.52 19.0726 10.8 17.993 10.8Z" fill="#E95A0E"/>
</svg>
