<svg width="36" height="36" viewBox="0 0 36 36" fill="none" xmlns="http://www.w3.org/2000/svg">
<path d="M34 10.83L22 1.37342C20.9 0.48897 19.4759 0 18.0001 0C16.5242 0 15.1001 0.48897 14.0001 1.37342L2.00018 10.83C1.36492 11.3408 0.857984 11.9673 0.51313 12.6679C0.168276 13.3685 -0.00658507 14.1271 0.000189587 14.8931V30.6062C0.000189587 32.0367 0.632326 33.4085 1.75754 34.42C2.88275 35.4315 4.40886 35.9997 6.00015 35.9997H30C31.5913 35.9997 33.1174 35.4315 34.2426 34.42C35.3678 33.4085 35.9999 32.0367 35.9999 30.6062V14.8752C36.0039 14.1121 35.8276 13.357 35.4829 12.6597C35.1381 11.9624 34.6327 11.3387 34 10.83ZM22 32.4041H14.0001V23.4149C14.0001 22.9381 14.2108 22.4808 14.5859 22.1436C14.9609 21.8065 15.4696 21.6171 16.0001 21.6171H20C20.5305 21.6171 21.0392 21.8065 21.4142 22.1436C21.7893 22.4808 22 22.9381 22 23.4149V32.4041ZM32 30.6062C32 31.083 31.7893 31.5403 31.4142 31.8775C31.0391 32.2147 30.5304 32.4041 30 32.4041H26V23.4149C26 21.9844 25.3679 20.6126 24.2427 19.6011C23.1174 18.5896 21.5913 18.0214 20 18.0214H16.0001C14.4088 18.0214 12.8827 18.5896 11.7575 19.6011C10.6323 20.6126 10.0001 21.9844 10.0001 23.4149V32.4041H6.00015C5.46972 32.4041 4.96101 32.2147 4.58594 31.8775C4.21087 31.5403 4.00016 31.083 4.00016 30.6062V14.8752C4.00052 14.6199 4.06135 14.3676 4.17859 14.1351C4.29584 13.9027 4.46682 13.6953 4.68016 13.5268L16.6801 4.08816C17.045 3.79993 17.5142 3.64097 18.0001 3.64097C18.4859 3.64097 18.9551 3.79993 19.3201 4.08816L31.32 13.5268C31.5333 13.6953 31.7043 13.9027 31.8215 14.1351C31.9388 14.3676 31.9996 14.6199 32 14.8752V30.6062Z" fill="#E95A0E"/>
</svg>
