<svg width="36" height="34" viewBox="0 0 36 34" fill="none" xmlns="http://www.w3.org/2000/svg">
<path d="M1.8 0C1.32261 0 0.864773 0.199003 0.527208 0.553231C0.189642 0.907459 0 1.3879 0 1.88885V24.555C0 25.056 0.189642 25.5364 0.527208 25.8907C0.864773 26.2449 1.32261 26.4439 1.8 26.4439H19.1682L27.675 33.5856C27.9398 33.8081 28.259 33.9475 28.596 33.9878C28.933 34.0282 29.274 33.9678 29.5797 33.8136C29.8854 33.6594 30.1434 33.4177 30.3239 33.1164C30.5044 32.8151 30.6001 32.4664 30.6 32.1104V26.4439H34.2C34.6774 26.4439 35.1352 26.2449 35.4728 25.8907C35.8104 25.5364 36 25.056 36 24.555V1.88885C36 1.3879 35.8104 0.907459 35.4728 0.553231C35.1352 0.199003 34.6774 0 34.2 0H1.8ZM32.4 22.6662H28.8C28.3226 22.6662 27.8648 22.8652 27.5272 23.2194C27.1896 23.5737 27 24.0541 27 24.555V28.1797L20.925 23.0799C20.6057 22.8119 20.2089 22.666 19.8 22.6662H3.6V3.7777H32.4V22.6662Z" fill="#E95A0E"/>
</svg>
