<svg width="36" height="36" viewBox="0 0 36 36" fill="none" xmlns="http://www.w3.org/2000/svg">
<path d="M16.1227 5.76H6.91734C6.63093 5.76008 6.35627 5.87389 6.15375 6.07641C5.95123 6.27893 5.83742 6.55359 5.83734 6.84V16.2C5.83742 16.4864 5.95123 16.7611 6.15375 16.9636C6.35627 17.1661 6.63093 17.2799 6.91734 17.28H16.1227C16.4091 17.2799 16.6837 17.1661 16.8862 16.9636C17.0888 16.7611 17.2026 16.4864 17.2027 16.2V6.84C17.2026 6.55359 17.0888 6.27893 16.8862 6.07641C16.6837 5.87389 16.4091 5.76008 16.1227 5.76ZM15.0427 15.12H7.99734V7.92H15.0427V15.12ZM12.96 10.08H10.08V12.96H12.96V10.08ZM1.44 14.4C1.62912 14.4001 1.81639 14.3628 1.99112 14.2905C2.16585 14.2181 2.32462 14.1121 2.45834 13.9783C2.59207 13.8446 2.69814 13.6859 2.77049 13.5111C2.84284 13.3364 2.88005 13.1491 2.88 12.96V4.32C2.88038 3.93821 3.03222 3.57216 3.30219 3.30219C3.57216 3.03222 3.93821 2.88038 4.32 2.88H12.96C13.3419 2.88 13.7082 2.72829 13.9782 2.45823C14.2483 2.18818 14.4 1.82191 14.4 1.44C14.4 1.05809 14.2483 0.691819 13.9782 0.421766C13.7082 0.151714 13.3419 0 12.96 0H4.32C3.17465 0.0012502 2.07657 0.456793 1.26668 1.26668C0.456794 2.07657 0.00125025 3.17465 4.87016e-08 4.32V12.96C-4.9141e-05 13.1491 0.0371641 13.3364 0.109513 13.5111C0.181863 13.6859 0.287931 13.8446 0.421657 13.9783C0.555383 14.1121 0.714147 14.2181 0.888878 14.2905C1.06361 14.3628 1.25088 14.4001 1.44 14.4ZM16.1227 18.72H6.91734C6.63093 18.7201 6.35627 18.8339 6.15375 19.0364C5.95123 19.2389 5.83742 19.5136 5.83734 19.8V29.16C5.83742 29.4464 5.95123 29.7211 6.15375 29.9236C6.35627 30.1261 6.63093 30.2399 6.91734 30.24H16.1227C16.4091 30.2399 16.6837 30.1261 16.8862 29.9236C17.0888 29.7211 17.2026 29.4464 17.2027 29.16V19.8C17.2026 19.5136 17.0888 19.2389 16.8862 19.0364C16.6837 18.8339 16.4091 18.7201 16.1227 18.72ZM15.0427 28.08H7.99734V20.88H15.0427V28.08ZM12.96 23.04H10.08V25.92H12.96V23.04ZM12.96 33.12H4.32C3.93821 33.1196 3.57216 32.9678 3.30219 32.6978C3.03222 32.4278 2.88038 32.0618 2.88 31.68V23.04C2.88 22.6581 2.72829 22.2918 2.45823 22.0218C2.18818 21.7517 1.82191 21.6 1.44 21.6C1.05809 21.6 0.691819 21.7517 0.421766 22.0218C0.151714 22.2918 4.87016e-08 22.6581 4.87016e-08 23.04V31.68C0.00125025 32.8254 0.456794 33.9234 1.26668 34.7333C2.07657 35.5432 3.17465 35.9988 4.32 36H12.96C13.3419 36 13.7082 35.8483 13.9782 35.5782C14.2483 35.3082 14.4 34.9419 14.4 34.56C14.4 34.1781 14.2483 33.8118 13.9782 33.5418C13.7082 33.2717 13.3419 33.12 12.96 33.12ZM34.56 21.6C34.3709 21.6 34.1836 21.6372 34.0089 21.7095C33.8341 21.7819 33.6754 21.8879 33.5417 22.0217C33.4079 22.1554 33.3019 22.3141 33.2295 22.4889C33.1572 22.6636 33.12 22.8509 33.12 23.04V31.68C33.1196 32.0618 32.9678 32.4278 32.6978 32.6978C32.4278 32.9678 32.0618 33.1196 31.68 33.12H23.04C22.6581 33.12 22.2918 33.2717 22.0218 33.5418C21.7517 33.8118 21.6 34.1781 21.6 34.56C21.6 34.9419 21.7517 35.3082 22.0218 35.5782C22.2918 35.8483 22.6581 36 23.04 36H31.68C32.8254 35.9988 33.9234 35.5432 34.7333 34.7333C35.5432 33.9234 35.9988 32.8254 36 31.68V23.04C36 22.8509 35.9628 22.6636 35.8905 22.4889C35.8181 22.3141 35.7121 22.1554 35.5783 22.0217C35.4446 21.8879 35.2859 21.7819 35.1111 21.7095C34.9364 21.6372 34.7491 21.6 34.56 21.6ZM22.32 26.64H19.44V29.52H22.32V26.64ZM19.44 22.312H22.32V19.432H19.44V22.312ZM31.68 0H23.04C22.6581 0 22.2918 0.151714 22.0218 0.421766C21.7517 0.691819 21.6 1.05809 21.6 1.44C21.6 1.82191 21.7517 2.18818 22.0218 2.45823C22.2918 2.72829 22.6581 2.88 23.04 2.88H31.68C32.0618 2.88038 32.4278 3.03222 32.6978 3.30219C32.9678 3.57216 33.1196 3.93821 33.12 4.32V12.96C33.12 13.3419 33.2717 13.7082 33.5418 13.9782C33.8118 14.2483 34.1781 14.4 34.56 14.4C34.9419 14.4 35.3082 14.2483 35.5782 13.9782C35.8483 13.7082 36 13.3419 36 12.96V4.32C35.9988 3.17465 35.5432 2.07657 34.7333 1.26668C33.9234 0.456793 32.8254 0.0012502 31.68 0ZM23.04 12.96H25.92V10.08H23.04V12.96ZM25.92 25.92V23.04H23.04V25.92H25.92ZM29.0827 17.28C29.3691 17.2799 29.6437 17.1661 29.8462 16.9636C30.0488 16.7611 30.1626 16.4864 30.1627 16.2V6.84C30.1626 6.55359 30.0488 6.27893 29.8462 6.07641C29.6437 5.87389 29.3691 5.76008 29.0827 5.76H19.8773C19.5909 5.76008 19.3163 5.87389 19.1138 6.07641C18.9112 6.27893 18.7974 6.55359 18.7973 6.84V16.2C18.7974 16.4864 18.9112 16.7611 19.1138 16.9636C19.3163 17.1661 19.5909 17.2799 19.8773 17.28H29.0827ZM20.9573 7.92H28.0027V15.12H20.9573V7.92ZM29.52 19.432H26.64V22.312H29.52V19.432ZM26.64 29.52H29.52V26.64H26.64V29.52Z" fill="#E95A0E"/>
</svg>
