<svg width="30" height="42" viewBox="0 0 30 42" fill="none" xmlns="http://www.w3.org/2000/svg">
<path d="M14.9961 17.875C19.4023 17.875 22.8086 12.8281 22.8086 8.5C22.8086 6.428 21.9855 4.44086 20.5204 2.97573C19.0552 1.5106 17.0681 0.6875 14.9961 0.6875C12.9241 0.6875 10.9369 1.5106 9.47182 2.97573C8.00669 4.44086 7.18359 6.428 7.18359 8.5C7.18359 12.8281 10.5898 17.875 14.9961 17.875ZM14.9961 3.8125C16.2393 3.8125 17.4316 4.30636 18.3107 5.18544C19.1897 6.06451 19.6836 7.2568 19.6836 8.5C19.6836 11.2344 17.4023 14.75 14.9961 14.75C12.5898 14.75 10.3086 11.2344 10.3086 8.5C10.3086 7.2568 10.8025 6.06451 11.6815 5.18544C12.5606 4.30636 13.7529 3.8125 14.9961 3.8125ZM26.1211 24.2969C24.6675 22.8229 22.9354 21.6525 21.0256 20.8537C19.1158 20.0548 17.0663 19.6434 14.9961 19.6434C12.9259 19.6434 10.8764 20.0548 8.96658 20.8537C7.05676 21.6525 5.32472 22.8229 3.87109 24.2969C2.93007 25.0956 2.15995 26.0761 1.60687 27.1796C1.05379 28.2831 0.729134 29.4868 0.652344 30.7187C0.731193 31.948 1.05684 33.1488 1.60984 34.2494C2.16285 35.35 2.9319 36.328 3.87109 37.125C5.31928 38.6085 7.04955 39.7874 8.96011 40.5923C10.8707 41.3972 12.9229 41.8119 14.9961 41.8119C17.0693 41.8119 19.1215 41.3972 21.0321 40.5923C22.9426 39.7874 24.6729 38.6085 26.1211 37.125C27.0603 36.328 27.8293 35.35 28.3823 34.2494C28.9353 33.1488 29.261 31.948 29.3398 30.7187C29.263 29.4868 28.9384 28.2831 28.3853 27.1796C27.8322 26.0761 27.0621 25.0956 26.1211 24.2969ZM23.918 34.8906C22.7543 36.0764 21.366 37.0184 19.8341 37.6614C18.3022 38.3044 16.6575 38.6356 14.9961 38.6356C13.3347 38.6356 11.69 38.3044 10.1581 37.6614C8.6262 37.0184 7.23785 36.0764 6.07422 34.8906C4.78802 33.8576 3.96239 32.358 3.77734 30.7187C3.95842 29.0739 4.78442 27.568 6.07422 26.5312C7.23785 25.3454 8.6262 24.4035 10.1581 23.7605C11.69 23.1174 13.3347 22.7863 14.9961 22.7863C16.6575 22.7863 18.3022 23.1174 19.8341 23.7605C21.366 24.4035 22.7543 25.3454 23.918 26.5312C25.2078 27.568 26.0338 29.0739 26.2148 30.7187C26.0298 32.358 25.2042 33.8576 23.918 34.8906Z" fill="#E95A0E"/>
</svg>
