<svg width="20" height="20" viewBox="0 0 20 20" fill="none" xmlns="http://www.w3.org/2000/svg">
<path d="M6.5516 10.7141C7.12195 10.7141 7.58609 10.2334 7.58609 9.64272C7.58609 9.052 7.12195 8.57129 6.5516 8.57129C5.98126 8.57129 5.51712 9.052 5.51712 9.64272C5.51712 10.2334 5.98126 10.7141 6.5516 10.7141ZM6.5516 9.28557C6.64306 9.28557 6.73077 9.3232 6.79543 9.39018C6.8601 9.45716 6.89643 9.548 6.89643 9.64272C6.89643 9.73744 6.8601 9.82828 6.79543 9.89526C6.73077 9.96223 6.64306 9.99986 6.5516 9.99986C6.46015 9.99986 6.37244 9.96223 6.30777 9.89526C6.24311 9.82828 6.20678 9.73744 6.20678 9.64272C6.20678 9.548 6.24311 9.45716 6.30777 9.39018C6.37244 9.3232 6.46015 9.28557 6.5516 9.28557ZM9.99988 10.7141C10.5702 10.7141 11.0344 10.2334 11.0344 9.64272C11.0344 9.052 10.5702 8.57129 9.99988 8.57129C9.42953 8.57129 8.9654 9.052 8.9654 9.64272C8.9654 10.2334 9.42953 10.7141 9.99988 10.7141ZM9.99988 9.28557C10.0913 9.28557 10.179 9.3232 10.2437 9.39018C10.3084 9.45716 10.3447 9.548 10.3447 9.64272C10.3447 9.73744 10.3084 9.82828 10.2437 9.89526C10.179 9.96223 10.0913 9.99986 9.99988 9.99986C9.90843 9.99986 9.82072 9.96223 9.75605 9.89526C9.69138 9.82828 9.65505 9.73744 9.65505 9.64272C9.65505 9.548 9.69138 9.45716 9.75605 9.39018C9.82072 9.3232 9.90843 9.28557 9.99988 9.28557ZM3.10333 14.2856C3.67367 14.2856 4.13781 13.8049 4.13781 13.2141C4.13781 12.6234 3.67367 12.1427 3.10333 12.1427C2.53299 12.1427 2.06885 12.6234 2.06885 13.2141C2.06885 13.8049 2.53299 14.2856 3.10333 14.2856ZM3.10333 12.857C3.19478 12.857 3.28249 12.8946 3.34716 12.9616C3.41183 13.0286 3.44816 13.1194 3.44816 13.2141C3.44816 13.3089 3.41183 13.3997 3.34716 13.4667C3.28249 13.5337 3.19478 13.5713 3.10333 13.5713C3.01188 13.5713 2.92417 13.5337 2.8595 13.4667C2.79483 13.3997 2.7585 13.3089 2.7585 13.2141C2.7585 13.1194 2.79483 13.0286 2.8595 12.9616C2.92417 12.8946 3.01188 12.857 3.10333 12.857ZM6.5516 14.2856C7.12195 14.2856 7.58609 13.8049 7.58609 13.2141C7.58609 12.6234 7.12195 12.1427 6.5516 12.1427C5.98126 12.1427 5.51712 12.6234 5.51712 13.2141C5.51712 13.8049 5.98126 14.2856 6.5516 14.2856ZM6.5516 12.857C6.64306 12.857 6.73077 12.8946 6.79543 12.9616C6.8601 13.0286 6.89643 13.1194 6.89643 13.2141C6.89643 13.3089 6.8601 13.3997 6.79543 13.4667C6.73077 13.5337 6.64306 13.5713 6.5516 13.5713C6.46015 13.5713 6.37244 13.5337 6.30777 13.4667C6.24311 13.3997 6.20678 13.3089 6.20678 13.2141C6.20678 13.1194 6.24311 13.0286 6.30777 12.9616C6.37244 12.8946 6.46015 12.857 6.5516 12.857ZM3.10333 17.857C3.67367 17.857 4.13781 17.3763 4.13781 16.7856C4.13781 16.1949 3.67367 15.7141 3.10333 15.7141C2.53299 15.7141 2.06885 16.1949 2.06885 16.7856C2.06885 17.3763 2.53299 17.857 3.10333 17.857ZM3.10333 16.4284C3.19478 16.4284 3.28249 16.4661 3.34716 16.533C3.41183 16.6 3.44816 16.6909 3.44816 16.7856C3.44816 16.8803 3.41183 16.9711 3.34716 17.0381C3.28249 17.1051 3.19478 17.1427 3.10333 17.1427C3.01188 17.1427 2.92417 17.1051 2.8595 17.0381C2.79483 16.9711 2.7585 16.8803 2.7585 16.7856C2.7585 16.6909 2.79483 16.6 2.8595 16.533C2.92417 16.4661 3.01188 16.4284 3.10333 16.4284ZM9.99988 15.7141C9.42953 15.7141 8.9654 16.1949 8.9654 16.7856C8.9654 17.3763 9.42953 17.857 9.99988 17.857C10.5702 17.857 11.0344 17.3763 11.0344 16.7856C11.0344 16.1949 10.5702 15.7141 9.99988 15.7141ZM9.99988 17.1427C9.90843 17.1427 9.82072 17.1051 9.75605 17.0381C9.69138 16.9711 9.65505 16.8803 9.65505 16.7856C9.65505 16.6909 9.69138 16.6 9.75605 16.533C9.82072 16.4661 9.90843 16.4284 9.99988 16.4284C10.0913 16.4284 10.179 16.4661 10.2437 16.533C10.3084 16.6 10.3447 16.6909 10.3447 16.7856C10.3447 16.8803 10.3084 16.9711 10.2437 17.0381C10.179 17.1051 10.0913 17.1427 9.99988 17.1427ZM16.8964 14.2856C17.4668 14.2856 17.9309 13.8049 17.9309 13.2141C17.9309 12.6234 17.4668 12.1427 16.8964 12.1427C16.3261 12.1427 15.8619 12.6234 15.8619 13.2141C15.8619 13.8049 16.3261 14.2856 16.8964 14.2856ZM16.8964 12.857C16.9879 12.857 17.0756 12.8946 17.1403 12.9616C17.2049 13.0286 17.2413 13.1194 17.2413 13.2141C17.2413 13.3089 17.2049 13.3997 17.1403 13.4667C17.0756 13.5337 16.9879 13.5713 16.8964 13.5713C16.805 13.5713 16.7173 13.5337 16.6526 13.4667C16.5879 13.3997 16.5516 13.3089 16.5516 13.2141C16.5516 13.1194 16.5879 13.0286 16.6526 12.9616C16.7173 12.8946 16.805 12.857 16.8964 12.857ZM16.8964 10.7141C17.4668 10.7141 17.9309 10.2334 17.9309 9.64272C17.9309 9.052 17.4668 8.57129 16.8964 8.57129C16.3261 8.57129 15.8619 9.052 15.8619 9.64272C15.8619 10.2334 16.3261 10.7141 16.8964 10.7141ZM16.8964 9.28557C16.9879 9.28557 17.0756 9.3232 17.1403 9.39018C17.2049 9.45716 17.2413 9.548 17.2413 9.64272C17.2413 9.73744 17.2049 9.82828 17.1403 9.89526C17.0756 9.96223 16.9879 9.99986 16.8964 9.99986C16.805 9.99986 16.7173 9.96223 16.6526 9.89526C16.5879 9.82828 16.5516 9.73744 16.5516 9.64272C16.5516 9.548 16.5879 9.45716 16.6526 9.39018C16.7173 9.3232 16.805 9.28557 16.8964 9.28557Z" fill="#E95A0E"/>
<path d="M0 6.78571V18.2143C0 19.1986 0.773793 20 1.72414 20H18.2759C19.2262 20 20 19.1986 20 18.2143V3.92857C20 2.94429 19.2262 2.14286 18.2759 2.14286H16.5517V1.07143C16.5517 0.480714 16.0876 0 15.5172 0C14.9469 0 14.4828 0.480714 14.4828 1.07143V2.14286H5.51724V1.07143C5.51724 0.480714 5.0531 0 4.48276 0C3.91241 0 3.44828 0.480714 3.44828 1.07143V2.14286H1.72414C1.26704 2.14342 0.828813 2.33174 0.505593 2.66651C0.182373 3.00127 0.000547537 3.45514 0 3.92857V6.78571ZM19.3103 18.2143C19.3103 18.805 18.8462 19.2857 18.2759 19.2857H1.72414C1.15379 19.2857 0.689655 18.805 0.689655 18.2143V7.14286H19.3103V18.2143ZM15.1724 1.07143C15.1724 0.976708 15.2087 0.885868 15.2734 0.818891C15.3381 0.751913 15.4258 0.714286 15.5172 0.714286C15.6087 0.714286 15.6964 0.751913 15.7611 0.818891C15.8257 0.885868 15.8621 0.976708 15.8621 1.07143V3.92857C15.8621 4.02329 15.8257 4.11413 15.7611 4.18111C15.6964 4.24809 15.6087 4.28571 15.5172 4.28571C15.4258 4.28571 15.3381 4.24809 15.2734 4.18111C15.2087 4.11413 15.1724 4.02329 15.1724 3.92857V1.07143ZM4.13793 1.07143C4.13793 0.976708 4.17426 0.885868 4.23893 0.818891C4.3036 0.751913 4.3913 0.714286 4.48276 0.714286C4.57421 0.714286 4.66192 0.751913 4.72659 0.818891C4.79126 0.885868 4.82759 0.976708 4.82759 1.07143V3.92857C4.82759 4.02329 4.79126 4.11413 4.72659 4.18111C4.66192 4.24809 4.57421 4.28571 4.48276 4.28571C4.3913 4.28571 4.3036 4.24809 4.23893 4.18111C4.17426 4.11413 4.13793 4.02329 4.13793 3.92857V1.07143ZM0.689655 3.92857C0.689655 3.33786 1.15379 2.85714 1.72414 2.85714H3.44828V3.92857C3.44828 4.51929 3.91241 5 4.48276 5C5.0531 5 5.51724 4.51929 5.51724 3.92857V2.85714H14.4828V3.92857C14.4828 4.51929 14.9469 5 15.5172 5C16.0876 5 16.5517 4.51929 16.5517 3.92857V2.85714H18.2759C18.8462 2.85714 19.3103 3.33786 19.3103 3.92857V6.42857H0.689655V3.92857Z" fill="#E95A0E"/>
<path d="M12.9606 10.2957C12.9926 10.3291 13.0306 10.3556 13.0725 10.3738C13.1144 10.3919 13.1594 10.4012 13.2048 10.4012C13.2502 10.4012 13.2951 10.3919 13.337 10.3738C13.3789 10.3556 13.417 10.3291 13.4489 10.2957L14.4234 9.28567C14.4862 9.21832 14.521 9.1281 14.5202 9.03446C14.5194 8.94082 14.4831 8.85124 14.4192 8.78502C14.3553 8.71881 14.2688 8.68125 14.1784 8.68043C14.0879 8.67962 14.0008 8.71562 13.9358 8.78067L13.2041 9.53853L12.9606 9.28567C12.8956 9.22062 12.8085 9.18462 12.7181 9.18543C12.6277 9.18625 12.5412 9.22381 12.4772 9.29002C12.4133 9.35624 12.377 9.44582 12.3763 9.53946C12.3755 9.6331 12.4102 9.72332 12.473 9.79067L12.9606 10.2957ZM12.9606 13.9721C12.9926 14.0055 13.0306 14.0321 13.0725 14.0502C13.1144 14.0683 13.1594 14.0776 13.2048 14.0776C13.2502 14.0776 13.2951 14.0683 13.337 14.0502C13.3789 14.0321 13.417 14.0055 13.4489 13.9721L14.4241 12.9621C14.4869 12.8947 14.5216 12.8045 14.5209 12.7109C14.5201 12.6172 14.4838 12.5277 14.4199 12.4615C14.3559 12.3952 14.2695 12.3577 14.179 12.3569C14.0886 12.356 14.0015 12.392 13.9365 12.4571L13.2041 13.2142L12.9599 12.9614C12.8949 12.8963 12.8078 12.8603 12.7174 12.8611C12.627 12.862 12.5405 12.8995 12.4766 12.9657C12.4126 13.032 12.3764 13.1215 12.3756 13.2152C12.3748 13.3088 12.4095 13.399 12.4724 13.4664L12.9606 13.9721ZM9.51235 13.9721C9.54429 14.0055 9.58231 14.0321 9.62422 14.0502C9.66613 14.0683 9.71108 14.0776 9.75649 14.0776C9.8019 14.0776 9.84686 14.0683 9.88876 14.0502C9.93067 14.0321 9.96869 14.0055 10.0006 13.9721L10.9758 12.9621C11.0386 12.8947 11.0734 12.8045 11.0726 12.7109C11.0718 12.6172 11.0355 12.5277 10.9716 12.4615C10.9077 12.3952 10.8212 12.3577 10.7308 12.3569C10.6404 12.356 10.5533 12.392 10.4882 12.4571L9.7558 13.2142L9.51166 12.9614C9.44663 12.8963 9.35952 12.8603 9.26911 12.8611C9.1787 12.862 9.09221 12.8995 9.02828 12.9657C8.96434 13.032 8.92808 13.1215 8.92729 13.2152C8.92651 13.3088 8.96126 13.399 9.02408 13.4664L9.51235 13.9721ZM6.06408 17.5435C6.09602 17.577 6.13404 17.6035 6.17594 17.6216C6.21785 17.6397 6.26281 17.6491 6.30822 17.6491C6.35362 17.6491 6.39858 17.6397 6.44049 17.6216C6.48239 17.6035 6.52042 17.577 6.55235 17.5435L7.52753 16.5335C7.59034 16.4662 7.6251 16.376 7.62431 16.2823C7.62352 16.1887 7.58726 16.0991 7.52332 16.0329C7.45939 15.9667 7.3729 15.9291 7.28249 15.9283C7.19208 15.9275 7.10497 15.9635 7.03994 16.0285L6.30753 16.7857L6.06339 16.5328C5.99835 16.4678 5.91125 16.4318 5.82083 16.4326C5.73042 16.4334 5.64394 16.4709 5.58 16.5372C5.51607 16.6034 5.4798 16.693 5.47902 16.7866C5.47823 16.8802 5.51299 16.9705 5.5758 17.0378L6.06408 17.5435Z" fill="#E95A0E"/>
</svg>
