<svg width="30" height="22" viewBox="0 0 30 22" fill="none" xmlns="http://www.w3.org/2000/svg">
<path fill-rule="evenodd" clip-rule="evenodd" d="M9.75 11C12.6506 11 15 8.53875 15 5.5C15 2.46125 12.6506 0 9.75 0C6.84937 0 4.5 2.46125 4.5 5.5C4.5 8.53875 6.84937 11 9.75 11ZM13.5 5.5C13.5 7.67085 11.8222 9.42857 9.75 9.42857C7.67782 9.42857 6 7.67085 6 5.5C6 3.32915 7.67782 1.57143 9.75 1.57143C11.8222 1.57143 13.5 3.32915 13.5 5.5ZM0 22V17.6C0 14.256 6.4959 12.5714 9.75 12.5714C11.9146 12.5714 15.5138 13.3168 17.6812 14.8003C19.226 14.3627 20.9202 14.1429 22.125 14.1429C23.5184 14.1429 25.3882 14.4369 26.9319 15.0313C27.7023 15.328 28.4392 15.7174 28.9967 16.2221C29.5581 16.7303 30 17.4174 30 18.281V22H0ZM1.5 17.6C1.5 17.3506 1.60917 17.0096 2.07464 16.5665C2.54931 16.1146 3.27992 15.6759 4.20512 15.2935C6.057 14.5283 8.30745 14.1429 9.75 14.1429C11.1925 14.1429 13.443 14.5283 15.2949 15.2935C16.2201 15.6759 16.9507 16.1146 17.4254 16.5665C17.8908 17.0096 18 17.3506 18 17.6V20.4286H1.5V17.6ZM19.0149 16.0829C20.1493 15.8372 21.2875 15.7143 22.125 15.7143C23.3599 15.7143 25.0526 15.9818 26.4143 16.5062C27.0966 16.7689 27.6482 17.0783 28.0159 17.4112C28.3798 17.7406 28.5 18.0298 28.5 18.281V20.4286H19.5V17.6C19.5 17.0493 19.3238 16.5435 19.0149 16.0829ZM26.25 8.25C26.25 10.6375 24.404 12.5714 22.125 12.5714C19.846 12.5714 18 10.6375 18 8.25C18 5.86237 19.846 3.92857 22.125 3.92857C24.404 3.92857 26.25 5.86237 26.25 8.25ZM22.125 11C23.5756 11 24.75 9.76973 24.75 8.25C24.75 6.73027 23.5756 5.5 22.125 5.5C20.6744 5.5 19.5 6.73027 19.5 8.25C19.5 9.76973 20.6744 11 22.125 11Z" fill="#E95A0E"/>
</svg>
