<svg width="14" height="22" viewBox="0 0 14 22" fill="none" xmlns="http://www.w3.org/2000/svg">
<path d="M12.3834 0H1.61656C1.18782 0 0.776642 0.153558 0.473479 0.426892C0.170315 0.700226 0 1.07095 0 1.4575V20.5425C0 20.9291 0.170315 21.2998 0.473479 21.5731C0.776642 21.8464 1.18782 22 1.61656 22H12.3834C12.8122 22 13.2234 21.8464 13.5265 21.5731C13.8297 21.2998 14 20.9291 14 20.5425V1.4575C14 1.07095 13.8297 0.700226 13.5265 0.426892C13.2234 0.153558 12.8122 0 12.3834 0ZM13.2375 20.5425C13.2365 20.7464 13.1462 20.9418 12.9862 21.086C12.8263 21.2302 12.6096 21.3116 12.3834 21.3125H1.61656C1.39036 21.3116 1.17372 21.2302 1.01378 21.086C0.853831 20.9418 0.76353 20.7464 0.762527 20.5425V1.4575C0.76353 1.25356 0.853831 1.05823 1.01378 0.914027C1.17372 0.76982 1.39036 0.688404 1.61656 0.6875H12.3834C12.6096 0.688404 12.8263 0.76982 12.9862 0.914027C13.1462 1.05823 13.2365 1.25356 13.2375 1.4575V20.5425ZM8.14379 19.3669H5.89434C5.71738 19.3669 5.54767 19.4303 5.42255 19.5431C5.29742 19.6559 5.22712 19.8089 5.22712 19.9684V20.24C5.22813 20.3993 5.29874 20.5518 5.42365 20.6644C5.54856 20.777 5.71769 20.8407 5.89434 20.8416H8.14379C8.32044 20.8407 8.48956 20.777 8.61447 20.6644C8.73938 20.5518 8.81 20.3993 8.811 20.24V19.9684C8.811 19.8089 8.74071 19.6559 8.61558 19.5431C8.49045 19.4303 8.32075 19.3669 8.14379 19.3669ZM8.42974 20.24C8.42875 20.3081 8.39831 20.3732 8.34489 20.4213C8.29148 20.4695 8.21932 20.4969 8.14379 20.4978H5.89434C5.8188 20.4969 5.74664 20.4695 5.69323 20.4213C5.63982 20.3732 5.60938 20.3081 5.60839 20.24V19.9684C5.60839 19.9001 5.63851 19.8345 5.69214 19.7861C5.74577 19.7378 5.8185 19.7106 5.89434 19.7106H8.14379C8.21963 19.7106 8.29236 19.7378 8.34599 19.7861C8.39961 19.8345 8.42974 19.9001 8.42974 19.9684V20.24ZM1.47168 19.0781H12.5283V2.92188H1.47168V19.0781ZM1.85294 3.26562H12.1471V18.7344H1.85294V3.26562ZM5.28431 2.0625C5.28431 2.01692 5.3044 1.9732 5.34015 1.94097C5.3759 1.90873 5.42439 1.89062 5.47495 1.89062H8.52505C8.57561 1.89062 8.6241 1.90873 8.65985 1.94097C8.6956 1.9732 8.71569 2.01692 8.71569 2.0625C8.71569 2.10808 8.6956 2.1518 8.65985 2.18403C8.6241 2.21627 8.57561 2.23438 8.52505 2.23438H5.47495C5.42439 2.23438 5.3759 2.21627 5.34015 2.18403C5.3044 2.1518 5.28431 2.10808 5.28431 2.0625ZM11.1939 2.0625C11.1939 2.00743 11.212 1.9536 11.2459 1.90781C11.2799 1.86202 11.3281 1.82633 11.3845 1.80526C11.441 1.78418 11.5031 1.77867 11.563 1.78941C11.6229 1.80016 11.6779 1.82667 11.7211 1.86562C11.7643 1.90456 11.7937 1.95417 11.8056 2.00818C11.8175 2.06219 11.8114 2.11818 11.788 2.16905C11.7647 2.21993 11.7251 2.26342 11.6743 2.29401C11.6235 2.32461 11.5638 2.34094 11.5027 2.34094C11.4622 2.34094 11.422 2.33374 11.3845 2.31974C11.3471 2.30575 11.313 2.28524 11.2844 2.25938C11.2557 2.23353 11.2329 2.20284 11.2174 2.16905C11.2019 2.13527 11.1939 2.09906 11.1939 2.0625ZM10.622 2.0625C10.622 2.02851 10.6332 1.99528 10.6541 1.96701C10.6751 1.93875 10.7049 1.91672 10.7397 1.90371C10.7745 1.8907 10.8128 1.8873 10.8498 1.89393C10.8868 1.90056 10.9208 1.91693 10.9474 1.94097C10.9741 1.965 10.9922 1.99563 10.9996 2.02897C11.007 2.06231 11.0032 2.09687 10.9888 2.12827C10.9743 2.15968 10.9499 2.18652 10.9185 2.20541C10.8872 2.22429 10.8503 2.23438 10.8126 2.23438C10.7621 2.23438 10.7136 2.21627 10.6778 2.18403C10.6421 2.1518 10.622 2.10808 10.622 2.0625ZM12.1776 20.2262C12.162 20.3816 12.0794 20.5253 11.9474 20.6263C11.8155 20.7272 11.6448 20.7774 11.4722 20.7659H10.7097C10.6713 20.7659 10.6344 20.7522 10.6072 20.7277C10.5801 20.7032 10.5648 20.67 10.5648 20.6353C10.5648 20.6183 10.5686 20.6015 10.5759 20.5858C10.5832 20.5702 10.594 20.556 10.6075 20.5441C10.621 20.5323 10.637 20.523 10.6545 20.5168C10.6721 20.5106 10.6909 20.5077 10.7097 20.5081H11.4722C11.701 20.5081 11.8916 20.3775 11.8916 20.2262C11.8916 20.075 11.701 19.9444 11.4722 19.9444H10.5038L10.5801 20.0028C10.5977 20.0128 10.6127 20.0261 10.6241 20.0419C10.6355 20.0576 10.643 20.0753 10.6461 20.0939C10.6493 20.1125 10.6479 20.1314 10.6421 20.1495C10.6363 20.1675 10.6263 20.1843 10.6127 20.1985C10.5992 20.2128 10.5823 20.2242 10.5634 20.232C10.5445 20.2399 10.5239 20.244 10.5031 20.244C10.4822 20.244 10.4616 20.24 10.4427 20.2322C10.4237 20.2244 10.4069 20.213 10.3932 20.1987L10.012 19.9134C10.0004 19.8942 9.9927 19.8732 9.98911 19.8516C9.98724 19.8425 9.98724 19.8332 9.98911 19.8241C9.98911 19.8241 9.98911 19.8241 9.98911 19.8C9.9971 19.7871 10.0074 19.7755 10.0196 19.7656L10.4009 19.47C10.4292 19.4477 10.4662 19.4364 10.5037 19.4386C10.5413 19.4409 10.5763 19.4565 10.601 19.482C10.6258 19.5076 10.6383 19.5409 10.6358 19.5748C10.6333 19.6086 10.616 19.6402 10.5877 19.6625L10.5 19.7347H11.4798C11.6431 19.724 11.8048 19.7684 11.9338 19.8592C12.0627 19.9501 12.1496 20.0809 12.1776 20.2262ZM3.61819 19.7691C3.6182 19.7861 3.61443 19.8029 3.6071 19.8185C3.59977 19.8342 3.58904 19.8484 3.57554 19.8602C3.56203 19.8721 3.54603 19.8814 3.52847 19.8876C3.51091 19.8938 3.49216 19.8967 3.47331 19.8962H2.32952C2.31085 19.8967 2.29227 19.8938 2.27492 19.8875C2.25757 19.8813 2.24181 19.872 2.2286 19.8601C2.21539 19.8481 2.20502 19.8339 2.19812 19.8183C2.19122 19.8026 2.18793 19.7859 2.18845 19.7691C2.18794 19.7521 2.19122 19.7352 2.19808 19.7193C2.20494 19.7035 2.21525 19.6891 2.2284 19.6769C2.24155 19.6647 2.25727 19.655 2.27464 19.6484C2.29201 19.6418 2.31067 19.6384 2.32952 19.6384H3.47331C3.51174 19.6384 3.54859 19.6522 3.57576 19.6767C3.60293 19.7012 3.61819 19.7344 3.61819 19.7691ZM3.61819 20.1128C3.6182 20.1298 3.61443 20.1466 3.6071 20.1623C3.59977 20.178 3.58904 20.1921 3.57554 20.204C3.56203 20.2158 3.54603 20.2251 3.52847 20.2313C3.51091 20.2375 3.49216 20.2405 3.47331 20.24H2.32952C2.31085 20.2405 2.29227 20.2375 2.27492 20.2313C2.25757 20.2251 2.24181 20.2157 2.2286 20.2038C2.21539 20.1919 2.20502 20.1777 2.19812 20.162C2.19122 20.1464 2.18793 20.1296 2.18845 20.1128C2.18794 20.0958 2.19122 20.0789 2.19808 20.0631C2.20494 20.0473 2.21525 20.0328 2.2284 20.0206C2.24155 20.0085 2.25727 19.9988 2.27464 19.9922C2.29201 19.9856 2.31067 19.9822 2.32952 19.9822H3.47331C3.49234 19.9822 3.51118 19.9856 3.52875 19.9921C3.54633 19.9987 3.5623 20.0083 3.57576 20.0204C3.58921 20.0326 3.59988 20.047 3.60716 20.0628C3.61444 20.0787 3.61819 20.0957 3.61819 20.1128ZM3.61819 20.4566C3.6182 20.4736 3.61443 20.4904 3.6071 20.506C3.59977 20.5217 3.58904 20.5359 3.57554 20.5477C3.56203 20.5596 3.54603 20.5689 3.52847 20.5751C3.51091 20.5813 3.49216 20.5842 3.47331 20.5837H2.32952C2.31085 20.5842 2.29227 20.5813 2.27492 20.575C2.25757 20.5688 2.24181 20.5595 2.2286 20.5476C2.21539 20.5356 2.20502 20.5214 2.19812 20.5058C2.19122 20.4901 2.18793 20.4734 2.18845 20.4566C2.18794 20.4396 2.19122 20.4227 2.19808 20.4068C2.20494 20.391 2.21525 20.3766 2.2284 20.3644C2.24155 20.3522 2.25727 20.3425 2.27464 20.3359C2.29201 20.3293 2.31067 20.3259 2.32952 20.3259H3.47331C3.51174 20.3259 3.54859 20.3397 3.57576 20.3642C3.60293 20.3887 3.61819 20.4219 3.61819 20.4566Z" fill="#E95A0E"/>
</svg>
