<svg width="22" height="22" viewBox="0 0 22 22" fill="none" xmlns="http://www.w3.org/2000/svg">
<path d="M11 0C4.93103 0 0 4.93103 0 11C0 17.069 4.93103 22 11 22C17.069 22 22 17.069 22 11C22 4.93103 17.069 0 11 0ZM11 21.3103C5.31034 21.3103 0.689655 16.6897 0.689655 11C0.689655 5.31034 5.31034 0.689655 11 0.689655C16.6897 0.689655 21.3103 5.31034 21.3103 11C21.3103 16.6897 16.6897 21.3103 11 21.3103Z" fill="#E95A0E"/>
<path d="M19.069 6.34487C19.069 6.31039 19.0345 6.31039 19.0345 6.31039C18.2069 4.89659 17.069 3.75866 15.6552 2.93108C15.6552 2.93108 15.6552 2.93108 15.6207 2.93108C15.6207 2.93108 15.6207 2.93108 15.5862 2.93108C14.2759 2.13797 12.6897 1.6897 11 1.6897C9.31039 1.6897 7.72418 2.13797 6.34487 2.93108C6.34487 2.93108 6.34487 2.93108 6.31039 2.93108C6.31039 2.93108 6.31039 2.93108 6.2759 2.93108C4.86211 3.75866 3.72418 4.89659 2.89659 6.31039C2.89659 6.31039 2.89659 6.31039 2.89659 6.34487C2.89659 6.34487 2.89659 6.34487 2.89659 6.37935C2.13797 7.72418 1.6897 9.31039 1.6897 11C1.6897 12.6897 2.13797 14.2759 2.93108 15.6552C2.93108 15.6552 2.93108 15.6552 2.93108 15.6897C2.93108 15.6897 2.93108 15.7242 2.96556 15.7242C3.79315 17.1035 4.93108 18.2759 6.34487 19.1035C6.34487 19.1035 6.34487 19.1035 6.37935 19.1035H6.41384C7.79315 19.8966 9.34487 20.3449 11.0345 20.3449C12.7242 20.3449 14.3104 19.8966 15.6552 19.1035H15.6897C15.6897 19.1035 15.6897 19.1035 15.7242 19.1035C17.1035 18.2759 18.2759 17.138 19.1035 15.7242C19.1035 15.7242 19.1035 15.7242 19.138 15.6897C19.138 15.6897 19.138 15.6897 19.138 15.6552C19.9311 14.2759 20.3794 12.6897 20.3794 11C20.3104 9.31039 19.8621 7.72418 19.069 6.34487ZM18.6552 15.0345L17.3794 14.2759C17.2069 14.1725 17 14.2414 16.8966 14.4138C16.7931 14.5862 16.8621 14.7931 17.0345 14.8966L18.3104 15.6552C17.6207 16.7242 16.6897 17.6552 15.6207 18.3449L14.8621 17.069C14.7587 16.8966 14.5518 16.8621 14.3794 16.9311C14.2069 17.0345 14.1725 17.2414 14.2414 17.4138L15 18.6897C13.8966 19.2759 12.6552 19.6207 11.3104 19.6897V18.2069C11.3104 18 11.1725 17.8621 10.9656 17.8621C10.7931 17.8621 10.6207 18 10.6207 18.2069V19.6207C9.31039 19.5518 8.03453 19.2069 6.93108 18.6207L7.6897 17.3449C7.79315 17.1725 7.72418 16.9656 7.55177 16.8621C7.37935 16.7587 7.17246 16.8276 7.06901 17L6.31039 18.2759C5.24142 17.5862 4.31039 16.6552 3.62073 15.5862L4.89659 14.8276C5.06901 14.7242 5.10349 14.5173 5.03452 14.3449C4.93108 14.1725 4.72418 14.138 4.55177 14.2069L3.2759 14.9656C2.75866 13.8966 2.41384 12.6552 2.37935 11.3449H3.86211C4.06901 11.3449 4.20694 11.2069 4.20694 11C4.20694 10.8276 4.06901 10.6552 3.86211 10.6552H2.37935C2.44832 9.34487 2.79315 8.06901 3.37935 6.96556L4.65521 7.72418C4.72418 7.75866 4.75866 7.75866 4.82763 7.75866C4.93108 7.75866 5.06901 7.6897 5.13797 7.58625C5.24142 7.41384 5.17246 7.20694 5.00004 7.10349L3.72418 6.34487C4.41384 5.2759 5.34487 4.34487 6.41384 3.65521L7.17246 4.93108C7.24142 5.03452 7.34487 5.10349 7.4828 5.10349C7.55177 5.10349 7.58625 5.10349 7.65521 5.06901C7.82763 4.96556 7.86211 4.75866 7.79315 4.58625L7.03452 3.31039C8.10349 2.75866 9.34487 2.41384 10.6552 2.37935V3.86211C10.6552 4.06901 10.7931 4.20694 11 4.20694C11.1725 4.20694 11.3449 4.06901 11.3449 3.86211V2.37935C12.6552 2.44832 13.9311 2.79315 15.0345 3.37935L14.2759 4.65521C14.1725 4.82763 14.2414 5.03452 14.4138 5.13797C14.4828 5.17246 14.5173 5.17246 14.5862 5.17246C14.6897 5.17246 14.8276 5.10349 14.8966 5.00004L15.6552 3.72418C16.7242 4.41383 17.6552 5.34487 18.3449 6.41384L17.069 7.17246C16.8966 7.2759 16.8621 7.4828 16.9311 7.65521C17 7.75866 17.1035 7.82763 17.2414 7.82763C17.3104 7.82763 17.3449 7.82763 17.4138 7.79315L18.6897 7.03452C19.2759 8.13797 19.6207 9.37935 19.6897 10.7242H18.2069C18 10.7242 17.8621 10.8621 17.8621 11.069C17.8621 11.2414 18 11.4138 18.2069 11.4138H19.6207C19.5862 12.6552 19.2414 13.8966 18.6552 15.0345Z" fill="#E95A0E"/>
<path d="M15.4828 10.6551H12.4484C12.2759 9.99996 11.6897 9.48272 11.0001 9.48272C10.7242 9.48272 10.4484 9.58617 10.207 9.7241L6.9656 6.48272C6.82767 6.34479 6.62077 6.34479 6.48284 6.48272C6.34491 6.62065 6.34491 6.82755 6.48284 6.96548L9.72422 10.2069C9.58629 10.4482 9.48284 10.6896 9.48284 11C9.48284 11.8275 10.1725 12.5172 11.0001 12.5172C11.7242 12.5172 12.3104 12.0344 12.4484 11.3448H15.4828C15.6897 11.3448 15.8277 11.2069 15.8277 11C15.8277 10.8275 15.6897 10.6551 15.4828 10.6551ZM11.0001 11.8275C10.5518 11.8275 10.1725 11.4482 10.1725 11C10.1725 10.7586 10.2759 10.5862 10.4139 10.4138C10.5518 10.2758 10.7587 10.1724 11.0001 10.1724C11.4484 10.1724 11.8277 10.5517 11.8277 11C11.8277 11.4482 11.4484 11.8275 11.0001 11.8275Z" fill="#E95A0E"/>
</svg>
