<svg width="22" height="22" viewBox="0 0 22 22" fill="none" xmlns="http://www.w3.org/2000/svg">
<path fill-rule="evenodd" clip-rule="evenodd" d="M11 11C13.7014 11 15.8889 8.81247 15.8889 6.11111C15.8889 3.40976 13.7014 1.22222 11 1.22222C8.29864 1.22222 6.11111 3.40976 6.11111 6.11111C6.11111 8.81247 8.29864 11 11 11ZM17.1111 6.11111C17.1111 9.4875 14.3764 12.2222 11 12.2222C7.62361 12.2222 4.88889 9.4875 4.88889 6.11111C4.88889 2.73472 7.62361 0 11 0C14.3764 0 17.1111 2.73472 17.1111 6.11111ZM1.9699 17.2406C1.3569 17.7351 1.22222 18.1067 1.22222 18.3333V20.7778H20.7778V18.3333C20.7778 18.1067 20.6431 17.7351 20.0301 17.2406C19.4308 16.7571 18.5375 16.2964 17.4547 15.8981C15.2899 15.1016 12.6825 14.6667 11 14.6667C9.31749 14.6667 6.71006 15.1016 4.54532 15.8981C3.46249 16.2964 2.56923 16.7571 1.9699 17.2406ZM11 13.4444C7.32875 13.4444 0 15.299 0 18.3333V22H22V18.3333C22 15.299 14.6713 13.4444 11 13.4444Z" fill="#E95A0E"/>
</svg>
