<svg width="1462" height="140" viewBox="0 0 1462 140" fill="none" xmlns="http://www.w3.org/2000/svg">
<path d="M1429.01 90.5L1423.51 84.5C1330.58 -16.6685 1233.14 -0.165851 1092.24 7.86367C971.325 14.7542 808.439 26.2982 688.522 35.6688C568.605 45.0394 479.667 41.1177 359.75 35.6688C239.833 30.0117 26.9812 6.07988 26.9812 6.07988L-3.85642e-05 0V140H59.9583C119.917 140 239.833 140 359.75 140C479.667 140 599.584 140 719.5 140C839.417 140 959.334 140 1079.25 140C1199.17 140 1319.08 140 1379.04 140H1461.49L1455.49 128.5L1447.49 115.5L1440.5 105.5L1435 98L1429.01 90.5Z" fill="white"/>
</svg>
