<svg width="30" height="30" viewBox="0 0 30 30" fill="none" xmlns="http://www.w3.org/2000/svg">
<path fill-rule="evenodd" clip-rule="evenodd" d="M29.7963 14.8038C29.5241 15.0643 29.082 15.0643 28.8098 14.8038L22.4248 8.70935C22.3791 8.67457 22.3398 8.63707 22.3034 8.59275L19.5677 5.98191C19.522 5.94713 19.4827 5.90963 19.4463 5.86531L14.9998 1.62073L1.19054 14.8038C0.918393 15.0643 0.47625 15.0643 0.204107 14.8038C-0.0680357 14.544 -0.0680357 14.122 0.204107 13.8622L14.422 0.289738C14.4441 0.257691 14.4598 0.22087 14.4891 0.19155C14.6298 0.0579055 14.8155 -0.00414376 14.9998 -5.25955e-05C15.1841 -0.00414376 15.3698 0.0572236 15.5105 0.19155C15.5413 0.220188 15.5548 0.257009 15.5791 0.289738L19.2855 3.82927V2.04348C19.2855 1.6671 19.6048 1.36162 19.9998 1.36162H22.857C23.0548 1.36162 23.2334 1.43799 23.362 1.56141C23.492 1.68482 23.5713 1.85529 23.5713 2.04348V7.92044L29.7963 13.8622C30.0684 14.122 30.0684 14.544 29.7963 14.8038ZM22.1427 2.72534H20.7141V5.193L22.1427 6.55672V2.72534ZM4.99982 13.6351C5.39411 13.6351 5.71411 13.9406 5.71411 14.317V27.2723C5.71411 28.0258 6.35411 28.636 7.14268 28.636H11.4284V19.7718C11.4284 19.3948 11.7477 19.09 12.1427 19.09H17.857C18.252 19.09 18.5713 19.3948 18.5713 19.7718V28.636H22.857C23.6463 28.636 24.2855 28.0258 24.2855 27.2723V14.317C24.2855 13.9406 24.6048 13.6351 24.9998 13.6351C25.3948 13.6351 25.7141 13.9406 25.7141 14.317V27.2723C25.7141 28.7785 24.4348 29.9998 22.857 29.9998H7.14268C5.56482 29.9998 4.28554 28.7785 4.28554 27.2723V14.317C4.28554 13.9399 4.60554 13.6351 4.99982 13.6351ZM17.1427 28.6354V20.453H12.857V28.6354H17.1427Z" fill="#E95A0E"/>
</svg>
