<svg width="28" height="34" viewBox="0 0 28 34" fill="none" xmlns="http://www.w3.org/2000/svg">
<path d="M7.18227 9.42099V6.79895C7.18227 3.05468 10.2226 0 13.9991 0C17.7757 0 20.816 3.05468 20.816 6.79895V9.42099H25.5279C25.7437 9.42114 25.9515 9.49994 26.1094 9.64152C26.2672 9.7831 26.3634 9.97694 26.3786 10.184L27.9983 33.1269C28.0125 33.3436 27.9371 33.557 27.7885 33.7205C27.6399 33.8841 27.4301 33.9845 27.2048 34H0.850747C0.625115 34 0.408724 33.9138 0.249178 33.7604C0.0896318 33.607 0 33.3989 0 33.1819V33.1269L1.61969 10.184C1.6342 9.97648 1.73012 9.78199 1.88805 9.63986C2.04598 9.49773 2.25413 9.41857 2.47044 9.41837L7.18227 9.42099ZM9.73996 9.42099H18.2611V6.79895C18.2611 4.3893 16.3523 2.45685 13.9991 2.45685C11.646 2.45685 9.73996 4.3893 9.73996 6.79895V9.42099ZM2.67494 31.5458H25.3234L23.9382 11.8805H4.06286L2.67494 31.5458Z" fill="#E95A0E"/>
</svg>
