<svg width="20" height="30" viewBox="0 0 20 30" fill="none" xmlns="http://www.w3.org/2000/svg">
<path d="M16.4109 0H3.58911C2.63722 0 1.72431 0.350384 1.05123 0.974071C0.378137 1.59776 0 2.44366 0 3.32569V26.6743C0 27.5563 0.378137 28.4022 1.05123 29.0259C1.72431 29.6496 2.63722 30 3.58911 30H16.4109C17.3628 30 18.2757 29.6496 18.9488 29.0259C19.6219 28.4022 20 27.5563 20 26.6743V3.32569C20 2.44366 19.6219 1.59776 18.9488 0.974071C18.2757 0.350384 17.3628 0 16.4109 0ZM17.3267 26.6743C17.3267 26.8994 17.2302 27.1152 17.0585 27.2744C16.8867 27.4335 16.6538 27.5229 16.4109 27.5229H3.58911C3.34621 27.5229 3.11326 27.4335 2.94151 27.2744C2.76976 27.1152 2.67327 26.8994 2.67327 26.6743V3.32569C2.67327 3.10062 2.76976 2.88477 2.94151 2.72562C3.11326 2.56647 3.34621 2.47706 3.58911 2.47706H16.4109C16.6538 2.47706 16.8867 2.56647 17.0585 2.72562C17.2302 2.88477 17.3267 3.10062 17.3267 3.32569V26.6743Z" fill="#E95A0E"/>
<path d="M11.2377 24.0826H8.76241C8.40792 24.0826 8.06794 24.2131 7.81727 24.4454C7.5666 24.6777 7.42578 24.9927 7.42578 25.3212C7.42578 25.6497 7.5666 25.9647 7.81727 26.1969C8.06794 26.4292 8.40792 26.5597 8.76241 26.5597H11.2377C11.5922 26.5597 11.9321 26.4292 12.1828 26.1969C12.4335 25.9647 12.5743 25.6497 12.5743 25.3212C12.5743 24.9927 12.4335 24.6777 12.1828 24.4454C11.9321 24.2131 11.5922 24.0826 11.2377 24.0826Z" fill="#E95A0E"/>
</svg>
