<svg width="34" height="34" viewBox="0 0 34 34" fill="none" xmlns="http://www.w3.org/2000/svg">
<path d="M17 0C13.6377 0 10.3509 0.997033 7.55531 2.86502C4.75968 4.733 2.58074 7.38804 1.29406 10.4944C0.00736581 13.6007 -0.329291 17.0189 0.326658 20.3165C0.982606 23.6142 2.6017 26.6433 4.97919 29.0208C7.35668 31.3983 10.3858 33.0174 13.6835 33.6733C16.9811 34.3293 20.3993 33.9926 23.5056 32.7059C26.612 31.4193 29.267 29.2403 31.135 26.4447C33.003 23.6491 34 20.3623 34 17C34 12.4913 32.2089 8.1673 29.0208 4.97918C25.8327 1.79107 21.5087 0 17 0ZM9.71429 29.6164C9.8947 27.8191 10.7363 26.153 12.0758 24.9412C13.4154 23.7294 15.1573 23.0584 16.9636 23.0584C18.7699 23.0584 20.5118 23.7294 21.8513 24.9412C23.1908 26.153 24.0325 27.8191 24.2129 29.6164C22.0116 30.8973 19.5103 31.5721 16.9636 31.5721C14.4168 31.5721 11.9155 30.8973 9.71429 29.6164ZM26.3986 28.0864C25.881 25.9748 24.67 24.0979 22.9595 22.756C21.2489 21.4141 19.1377 20.6847 16.9636 20.6847C14.7895 20.6847 12.6782 21.4141 10.9677 22.756C9.25711 24.0979 8.04615 25.9748 7.52858 28.0864C5.25558 26.1551 3.63 23.5728 2.87136 20.6883C2.11273 17.8037 2.25758 14.7558 3.28635 11.9561C4.31512 9.15648 6.17826 6.73998 8.62416 5.03296C11.0701 3.32593 13.9809 2.41062 16.9636 2.41062C19.9463 2.41062 22.8571 3.32593 25.303 5.03296C27.7489 6.73998 29.612 9.15648 30.6408 11.9561C31.6696 14.7558 31.8144 17.8037 31.0558 20.6883C30.2971 23.5728 28.6716 26.1551 26.3986 28.0864ZM17 7.28571C15.7992 7.28571 14.6253 7.6418 13.6269 8.30893C12.6285 8.97607 11.8503 9.9243 11.3907 11.0337C10.9312 12.1431 10.811 13.3639 11.0452 14.5416C11.2795 15.7194 11.8578 16.8012 12.7069 17.6503C13.556 18.4994 14.6378 19.0776 15.8155 19.3119C16.9933 19.5462 18.214 19.4259 19.3234 18.9664C20.4328 18.5069 21.3811 17.7287 22.0482 16.7302C22.7153 15.7318 23.0714 14.558 23.0714 13.3571C23.0714 11.7469 22.4318 10.2026 21.2932 9.06399C20.1545 7.92538 18.6102 7.28571 17 7.28571ZM17 17C16.2795 17 15.5752 16.7863 14.9761 16.3861C14.3771 15.9858 13.9102 15.4168 13.6344 14.7512C13.3587 14.0856 13.2866 13.3531 13.4271 12.6465C13.5677 11.9398 13.9147 11.2907 14.4241 10.7813C14.9336 10.2718 15.5827 9.92484 16.2893 9.78428C16.996 9.64372 17.7284 9.71586 18.3941 9.99158C19.0597 10.2673 19.6286 10.7342 20.0289 11.3333C20.4292 11.9323 20.6429 12.6367 20.6429 13.3571C20.6429 14.3233 20.2591 15.2499 19.5759 15.933C18.8927 16.6162 17.9662 17 17 17Z" fill="#E95A0E"/>
</svg>
