<svg width="37" height="36" viewBox="0 0 37 36" fill="none" xmlns="http://www.w3.org/2000/svg">
<path d="M36.002 18C36.002 27.945 27.947 36 18.002 36C8.05695 36 0.00195312 27.945 0.00195312 18C0.00195312 8.055 8.05695 0 18.002 0C27.947 0 36.002 8.055 36.002 18Z" fill="url(#paint0_linear_227_39)"/>
<path d="M14.702 26.25C14.117 26.25 14.222 26.025 14.012 25.47L12.302 19.83L22.9219 13.2L24.1669 13.53L23.1319 16.35L14.702 26.25Z" fill="#C8DAEA"/>
<path d="M14.7019 26.25C15.1519 26.25 15.3469 26.04 15.6019 25.8C15.9919 25.425 21.002 20.55 21.002 20.55L17.9269 19.8L15.0769 21.6L14.7019 26.1V26.25Z" fill="#A9C9DD"/>
<path d="M15.0018 21.66L22.2618 27.015C23.0868 27.465 23.6868 27.24 23.8968 26.25L26.8518 12.3299C27.1518 11.1149 26.3868 10.5749 25.5918 10.9349L8.25186 17.625C7.06686 18.105 7.08186 18.765 8.04186 19.05L12.4968 20.445L22.8018 13.95C23.2818 13.65 23.7318 13.815 23.3718 14.145L15.0018 21.66Z" fill="url(#paint1_linear_227_39)"/>
<defs>
<linearGradient id="paint0_linear_227_39" x1="23.2775" y1="5.6895" x2="14.2775" y2="26.6892" gradientUnits="userSpaceOnUse">
<stop stop-color="#37AEE2"/>
<stop offset="1" stop-color="#1E96C8"/>
</linearGradient>
<linearGradient id="paint1_linear_227_39" x1="19.3505" y1="18.5632" x2="23.1005" y2="24.5632" gradientUnits="userSpaceOnUse">
<stop stop-color="#EFF7FC"/>
<stop offset="1" stop-color="white"/>
</linearGradient>
</defs>
</svg>
